<?xml version="1.0" encoding="utf-8"?>
<!-- Generator: Adobe Illustrator 16.0.4, SVG Export Plug-In . SVG Version: 6.00 Build 0)  -->
<!DOCTYPE svg PUBLIC "-//W3C//DTD SVG 1.1//EN" "http://www.w3.org/Graphics/SVG/1.1/DTD/svg11.dtd">
<svg version="1.1" id="Layer_1" xmlns="http://www.w3.org/2000/svg" xmlns:xlink="http://www.w3.org/1999/xlink" x="0px" y="0px"
	 width="405.641px" height="404.446px" viewBox="0 0 405.641 404.446" enable-background="new 0 0 405.641 404.446"
	 xml:space="preserve">
<g>
	<g>
		<g id="XMLID_1_">
			<g>
				<path fill="#1F376B" d="M44.474,84c-3.96,3.644-8.773,5.813-14.879,4.826c-5.764-0.975-11.174-5.009-14.818-9.883
					c-5.74-7.787-11.016-14.319-6.593-22.91l0.037-0.024C0.946,41.483-3.977,5.23,36.846,6.266
					C48.654,5.23,68.492,20.743,66.628,33.087l0.037,0.195c2.888-0.415,5.971,0.573,7.007,3.083
					c2.254,4.667-1.219,14.318-7.275,12.88l-0.061,0.098c2.254,8.225,6.641,16.219,11.869,22.97
					c3.583,0.804,8.238,0.183,11.894-0.707l-0.012-0.037c2.644-7.799,22.288-4.752,27.491-3.12
					c5.715,1.682,11.516,4.643,15.598,8.518c9.444,2.242,18.34,6.751,27.491,8.518c5.386,0.877,9.603-1.742,14.696-1.34
					c17.499,0.146,45.101,10.785,60.991,14.575c4.789,2.839,19.656-1.694,24.859-0.085c2.254,0.67,4.715,1.523,6.689,2.681
					c1.279,0.865,2.426,2.364,3.154,3.156l0.014,0.012c1.926,0.89,3.68,2.011,5.143,3.437l-0.014,0.024
					c1.051,0.317,2.035,0.694,2.865,1.194c-1.535,2.961-5.18,2.12-7.934,1.56c-4.375-0.829-8.457,0.17-12.941,0.231v0.098
					c0.109,0.085,0.207,0.183,0.207,0.183c1.279,0.816,7.359,1.012,10.211,2.06c2.072,0.67,4.996,1.608,6.861,1.876
					c2.072,0.28,3.717,0.573,1.816,2.315c-1.791,1.633-3.938,0.829-6.094,0.658c-2.84-0.073-6.459-0.11-9.299-0.171
					c-3.461-0.219-8.457-0.207-12.211,0.78l0.062,0.268c1.963,2.132,12.248,10.395,3.861,9.919c-2.18-4.569-7.701-5.35-11.211-8.542
					c-0.207-3.498-3.119-7.763-5.629-10.285c-6.496,0.463-18.889,0.195-25.469,1.048c-15.245,2.011-26.286,1.402-41.031-2.096
					c-6.812-1.608-11.528-1.925-18.693-2.011c-6.386,0.475-21.862-5.581-31.16-5.508v0.183c7.092,18.949,0.256,32.938,20.095,53.703
					l0.341,0.354c9.444,0.622,29.356,1.865,41.603,6.361c10.724,4.155,58.565,35.437,74.065,39.641
					c10.469,3.022,24.652,3.302,35.268,7.958c13.318,6.349,52.424,40.128,65.256,45.526l0.012-0.024
					c14.77,5.107,12.539,6.726,17.609,10.078c5.068,3.34,26.846,15.062,27.66,20.607c0.672,3.898,4.119,19.766,1.195,22.773
					c-3.961,4.07-26.104-0.305-32.281-7.859c-16.365-19.984-31.342-31.488-32.023-33.305l-0.025,0.012
					c-4.338-8.65-27.527-19.764-39.25-22.006c-16.366-2.814-29.856-5.472-42.907-15.525c-6.35-4.716-8.688-6.605-17.242-6.495
					c-12.941,0.683-50.609-9.31-72.629-14.124l-0.17,0.183c13.551,11.699,26.102,38.105,35.777,50.547
					c6.117,7.885,12.027,4.021,20.277,17.256c8.641,13.867,12.881,39.799,23.092,47.221l0.025-0.025
					c8.834,3.17,16.756,6.422,18.484,14.867c0.842,7.701-1.414,16.195,3.887,21.801c14.686,15.525,9.557,35.84,2.986,41.615
					c-3.352,2.949-15-2.156-17.621-11.346c-1.961-7.42-3.424-14.732-4.387-21.922c-4.338-22.836-10.639-20.496-12.588-28.697
					l-0.049,0.012c-4.68-13.965-23.264-29.344-33.184-39.189c-10.917-10.09-7.359-17.816-19.887-25.604
					c-17.596-11.125-31.646-27.163-46.77-41.993c-8.006-7.616-28.101-28.417-34.328-39.153l-0.049,0.024
					c-4.63-5.679-32.512-21.325-47.537-43.662l-0.366,0.244c-2.206,4.29-5.544,9.932-6.251,14.586
					c-1.243,6.934,2.876,13.125,2.023,20.156c-1.207,10.151-4.777,20.155-7.592,30.331c-0.902,3.802-1.986,7.275-2.315,11.552
					c-0.037,2.157,1.901,7.104,1.56,9.311c-0.512,3.181-1.511,6.238-0.902,9.457c0.536,3.204,1.706,5.971,0.377,9.286
					c-0.524,1.256-1.06,1.975-1.913,0.609c-0.402-0.805-0.231-2.073-0.524-2.937c-0.366-1.463-1.072-2.938-1.718-4.303
					c-0.085,1.28-0.451,2.669-0.377,3.997c0.036,2.461,0.353,4.815-0.488,7.299c-0.219,0.463-0.694,1.9-1.328,1.998
					c-1.17,0.121-0.938-1.742-0.999-2.461c-0.208-3.07-1.182-6.446-0.89-9.579c-0.902,0.999-0.865,2.913-0.865,4.132
					c-0.061,2.777,0.012,6.726-1.292,9.261c-0.341,0.609-1.011,1.475-1.938,1.049c-0.853-0.414-0.512-1.365-0.634-2.182
					c-0.487-4.326-0.719-8.153,0.244-12.357l-0.134-0.085c-1.072,1.657-1.804,3.607-2.193,5.581
					c-0.378,2.084-0.512,4.496-1.475,6.422c-0.524,0.988-1.816,2.219-2.34,0.586c-0.317-1.023,1.657-12.37,2.084-14.125
					c-0.354,0.427-0.707,0.854-1.048,1.292c-1.231,1.486-2.596,1.462-4.326,1.011l0.049-0.183c0.902-3.96,4.691-6.763,5.532-10.711
					c0.012-0.012,0.024-0.024,0.012-0.037c1.328-3.595,4.351-8.555,6.081-10.48c-0.402-18.547-4.156-37.289-2.474-56.141
					c0.415-5.118,2.34-9.883,3.132-14.916c1.243-6.934,0.865-14.794,2.206-22.105l0.098-0.037
					c-3.107-8.701-2.267-16.585,0.658-25.749c1.633-5.24,10.285-19.753,17.755-17.584l0.231-0.146
					c-2.157-3.437-4.996-6.398-8.25-9.286L44.474,84z"/>
			</g>
			<g>
				<path fill="none" stroke="#1F376B" stroke-width="0.5" d="M8.233,56.033c0-0.012-0.012-0.012-0.012-0.024
					C0.946,41.483-3.977,5.23,36.846,6.266c0.207,0,0.414,0,0.633,0.012"/>
				<path fill="none" stroke="#1F376B" stroke-width="0.5" d="M8.184,56.033c-4.423,8.591,0.853,15.123,6.593,22.91
					c3.644,4.874,9.054,8.908,14.818,9.883C35.7,89.813,40.514,87.644,44.474,84c6.495-6.008,10.675-16.024,14.477-22.617"/>
				<path fill="none" stroke="#1F376B" stroke-width="0.5" d="M44.535,84.073c3.254,2.888,6.093,5.85,8.25,9.286
					c1.133,1.779,2.084,3.692,2.815,5.788"/>
				<path fill="none" stroke="#1F376B" stroke-width="0.5" d="M60.864,38.144c0.476-2.827,3.059-4.484,5.801-4.862
					c2.888-0.415,5.971,0.573,7.007,3.083c2.254,4.667-1.219,14.318-7.275,12.88c-0.415-0.098-0.841-0.244-1.268-0.451"/>
				<path fill="none" stroke="#1F376B" stroke-width="0.5" d="M66.336,49.343c2.254,8.225,6.641,16.219,11.869,22.97
					c0.244,0.305,0.475,0.597,0.707,0.89"/>
				<path fill="none" stroke="#1F376B" stroke-width="0.5" d="M78.095,72.289c0.037,0.012,0.073,0.012,0.11,0.024
					c3.583,0.804,8.238,0.183,11.894-0.707c0.585-0.146,1.158-0.292,1.682-0.439"/>
				<path fill="none" stroke="#1F376B" stroke-width="0.5" d="M45.571,121.265c-0.476,10.967,3.497,21.045,9.554,30.05
					c15.025,22.337,42.907,37.983,47.537,43.662"/>
				<path fill="none" stroke="#1F376B" stroke-width="0.5" d="M120.417,101.706c7.092,18.949,0.256,32.938,20.095,53.703"/>
				<path fill="none" stroke="#1F376B" stroke-width="0.5" d="M140.853,155.763c9.444,0.622,29.356,1.865,41.603,6.361
					c10.724,4.155,58.564,35.437,74.066,39.641c10.467,3.022,24.652,3.302,35.266,7.958c13.318,6.349,52.424,40.128,65.256,45.526
					c0.072,0.036,0.135,0.072,0.207,0.098"/>
				<path fill="none" stroke="#1F376B" stroke-width="0.5" d="M167.162,209.381c22.02,4.813,59.687,14.806,72.628,14.124
					c8.555-0.11,10.895,1.779,17.242,6.495c13.053,10.053,26.541,12.71,42.907,15.525c11.723,2.242,34.914,13.357,39.252,22.007"/>
				<path fill="none" stroke="#1F376B" stroke-width="0.5" d="M102.175,193.99c0.17,0.305,0.341,0.633,0.536,0.962
					c6.227,10.736,26.322,31.537,34.328,39.153c15.123,14.831,29.173,30.867,46.77,41.994c12.527,7.785,8.969,15.512,19.888,25.602
					c9.919,9.848,28.503,25.227,33.183,39.189"/>
				<path fill="none" stroke="#1F376B" stroke-width="0.5" d="M166.857,209.442c0.049,0.037,0.085,0.073,0.134,0.122
					c13.551,11.699,26.102,38.105,35.777,50.546c6.117,7.887,12.027,4.021,20.277,17.256c8.641,13.867,12.881,39.801,23.092,47.221
					c0.014,0.014,0.037,0.023,0.049,0.037"/>
				<path fill="none" stroke="#1F376B" stroke-width="0.5" d="M246.163,324.562c8.836,3.17,16.756,6.422,18.486,14.867
					c0.84,7.701-1.414,16.195,3.887,21.801c14.686,15.525,9.555,35.84,2.986,41.615c-3.352,2.949-15.002-2.156-17.621-11.346
					c-1.963-7.422-3.426-14.732-4.387-21.922c-4.34-22.838-10.639-20.496-12.588-28.697c-0.025-0.049-0.037-0.109-0.049-0.172"/>
				<path fill="none" stroke="#1F376B" stroke-width="0.5" d="M339.179,267.411c0,0.035,0.012,0.061,0.037,0.109
					c0.682,1.814,15.658,13.318,32.023,33.303c6.18,7.557,28.32,11.932,32.281,7.861c2.924-3.01-0.523-18.877-1.195-22.775
					c-0.814-5.545-22.592-17.268-27.66-20.605c-5.07-3.354-2.842-4.973-17.609-10.079"/>
				<path fill="none" stroke="#1F376B" stroke-width="0.5" d="M66.628,33.087C68.492,20.743,48.654,5.23,36.846,6.266
					c-0.061,0-0.122,0-0.183,0.012"/>
				<path fill="none" stroke="#1F376B" stroke-width="0.5" d="M90.086,71.57c2.644-7.799,22.288-4.752,27.491-3.12
					c5.715,1.682,11.516,4.643,15.598,8.518c0.999,0.938,1.889,1.938,2.657,2.985"/>
				<path fill="none" stroke="#1F376B" stroke-width="0.5" d="M133.139,76.956c0.012,0,0.024,0,0.037,0.012
					c9.444,2.242,18.34,6.751,27.491,8.518c5.386,0.877,9.603-1.742,14.696-1.34c17.499,0.146,45.101,10.785,60.991,14.575
					c0.035,0.012,0.061,0.012,0.098,0.024"/>
				<path fill="none" stroke="#1F376B" stroke-width="0.5" d="M115.506,102.498c1.267-0.67,2.949-0.962,4.911-0.975
					c9.298-0.073,24.774,5.983,31.16,5.508c7.165,0.085,11.881,0.402,18.693,2.011c14.745,3.498,25.786,4.106,41.03,2.096
					c6.582-0.853,18.975-0.584,25.469-1.048c0.014,0,0.014,0,0.025,0"/>
				<path fill="none" stroke="#1F376B" stroke-width="0.5" d="M54.759,151.558c-2.206,4.29-5.544,9.932-6.251,14.586
					c-1.243,6.934,2.876,13.125,2.023,20.156c-1.207,10.151-4.777,20.155-7.592,30.331c-0.902,3.802-1.986,7.275-2.315,11.552"/>
				<path fill="none" stroke="#1F376B" stroke-width="0.5" d="M52.554,93.505c-7.47-2.169-16.122,12.344-17.755,17.584
					c-2.925,9.164-3.766,17.048-0.658,25.749c0.183,0.512,0.378,1.024,0.585,1.536"/>
				<path fill="none" stroke="#1F376B" stroke-width="0.5" d="M34.043,136.874c-1.34,7.312-0.962,15.171-2.206,22.105
					c-0.792,5.033-2.717,9.797-3.132,14.916c-1.682,18.852,2.072,37.594,2.474,56.141c0,0.024,0,0.037,0,0.061"/>
				<path fill="none" stroke="#1F376B" stroke-width="0.5" d="M236.573,109.895c0.062,0.061,0.135,0.122,0.195,0.195
					c2.51,2.522,5.422,6.788,5.629,10.285c0.014,0.049,0.014,0.097,0.014,0.146"/>
				<path fill="none" stroke="#1F376B" stroke-width="0.5" d="M242.313,120.302c0.023,0.024,0.049,0.049,0.084,0.073
					c3.51,3.192,9.031,3.973,11.211,8.542c0.037,0.061,0.074,0.134,0.1,0.195"/>
				<path fill="none" stroke="#1F376B" stroke-width="0.5" d="M249.747,118.998c1.961,2.132,12.246,10.395,3.861,9.919
					c-0.061,0.012-0.121,0-0.193,0"/>
				<path fill="none" stroke="#1F376B" stroke-width="0.5" d="M247.991,119.266c0.523-0.208,1.098-0.39,1.693-0.536
					c3.754-0.987,8.75-1,12.211-0.78c2.84,0.061,6.459,0.098,9.299,0.171c2.156,0.17,4.303,0.975,6.092-0.658
					c1.902-1.743,0.258-2.035-1.814-2.315c-1.865-0.268-4.789-1.206-6.861-1.876c-2.852-1.048-8.932-1.243-10.211-2.06
					c0,0-0.098-0.097-0.207-0.183"/>
				<path fill="none" stroke="#1F376B" stroke-width="0.5" d="M258.093,110.931c0.037,0,0.062,0,0.098,0
					c4.484-0.061,8.568-1.06,12.941-0.231c2.754,0.561,6.398,1.401,7.934-1.56c-0.828-0.5-1.814-0.877-2.863-1.194
					c-2.182-0.658-4.654-1-6.58-1.45c-3.047-0.658-7.152,0.755-9.906-0.585"/>
				<path fill="none" stroke="#1F376B" stroke-width="0.5" d="M271.071,104.484c1.928,0.89,3.682,2.011,5.145,3.438"/>
				<path fill="none" stroke="#1F376B" stroke-width="0.5" d="M258.983,101.109c3.852,0.683,8.264,1.572,12.076,3.363"/>
				<path fill="none" stroke="#1F376B" stroke-width="0.5" d="M236.306,98.696c0.012,0.012,0.037,0.024,0.049,0.024
					c4.789,2.839,19.656-1.694,24.859-0.085c2.254,0.67,4.715,1.523,6.689,2.681c1.279,0.865,2.424,2.364,3.154,3.156l0.014,0.012"
					/>
				<path fill="none" stroke="#1F376B" stroke-width="0.5" d="M31.24,229.963c-0.024,0.024-0.036,0.049-0.061,0.073
					c-1.73,1.925-4.753,6.885-6.081,10.48"/>
				<path fill="none" stroke="#1F376B" stroke-width="0.5" d="M28.34,244.757c-1.109,1.584-2.303,2.973-3.461,4.387
					c-0.354,0.427-0.707,0.854-1.048,1.292c-1.231,1.486-2.596,1.462-4.326,1.011c-0.085-0.023-0.183-0.049-0.28-0.072"/>
				<path fill="none" stroke="#1F376B" stroke-width="0.5" d="M19.554,251.264c0.902-3.96,4.691-6.763,5.532-10.711
					c0.012-0.012,0.024-0.024,0.012-0.037c0.024-0.061,0.037-0.134,0.049-0.195"/>
				<path fill="none" stroke="#1F376B" stroke-width="0.5" d="M37.004,237.932c-1.158,5.593-4.119,6.142-8.079,7.25"/>
				<path fill="none" stroke="#1F376B" stroke-width="0.5" d="M24.904,249.034c-0.012,0.037-0.012,0.073-0.024,0.11
					c-0.427,1.755-2.401,13.099-2.084,14.125c0.524,1.633,1.816,0.402,2.34-0.586c0.963-1.926,1.097-4.338,1.475-6.422
					c0.39-1.973,1.121-3.923,2.193-5.581c0.158-0.28,0.354-0.548,0.548-0.816"/>
				<path fill="none" stroke="#1F376B" stroke-width="0.5" d="M28.937,250.764c-0.963,4.204-0.731,8.03-0.244,12.356
					c0.122,0.816-0.219,1.768,0.634,2.182c0.926,0.428,1.597-0.438,1.938-1.047c1.304-2.535,1.231-6.484,1.292-9.263
					c0-1.218-0.037-3.132,0.865-4.131c0.073-0.072,0.146-0.146,0.219-0.207"/>
				<path fill="none" stroke="#1F376B" stroke-width="0.5" d="M33.434,250.764c0,0.037-0.012,0.061-0.012,0.098
					c-0.292,3.132,0.682,6.506,0.89,9.579c0.061,0.719-0.171,2.582,0.999,2.461c0.634-0.098,1.109-1.535,1.328-1.998
					c0.841-2.484,0.524-4.838,0.488-7.299c-0.073-1.328,0.292-2.717,0.377-3.997"/>
				<path fill="none" stroke="#1F376B" stroke-width="0.5" d="M37.455,249.498c0.012,0.036,0.037,0.072,0.049,0.108
					c0.646,1.365,1.353,2.839,1.718,4.302c0.292,0.865,0.122,2.134,0.524,2.937c0.853,1.365,1.389,0.646,1.913-0.609
					c1.329-3.313,0.159-6.081-0.377-9.286c-0.609-3.217,0.39-6.275,0.902-9.457c0.341-2.205-1.597-7.152-1.56-9.31
					c0-0.048,0-0.085,0-0.134"/>
			</g>
		</g>
	</g>
	<g>
		<path fill="#1F376B" d="M47.974,22.266c-30.121-10.08-37.394,28.801-47.375,5c-0.616-1.469-0.711-2.941-0.492-4.264
			c0.412-2.492,1.938-4.453,3.194-4.861C4.974-1.484,53.849-5.109,62.974,6.891c19,7.5,16.375,37.75,8.375,50.875
			c-3.875,3.375-5.75-0.25-6.375-6.25c-0.374-3.593,9.625-9,2.375-18.125c-2.244-2.824-8.75,3.5-9.379,10.547
			c-3.746,1.203-5.979,5.532-9.371-21.672"/>
	</g>
</g>
</svg>
