<?xml version="1.0" encoding="utf-8"?>
<!-- Generator: Adobe Illustrator 16.0.3, SVG Export Plug-In . SVG Version: 6.00 Build 0)  -->
<!DOCTYPE svg PUBLIC "-//W3C//DTD SVG 1.1//EN" "http://www.w3.org/Graphics/SVG/1.1/DTD/svg11.dtd">
<svg version="1.1" id="NEVERLAND" xmlns="http://www.w3.org/2000/svg" xmlns:xlink="http://www.w3.org/1999/xlink" x="0px" y="0px"
	 width="513px" height="171.031px" viewBox="0 0 513 171.031" enable-background="new 0 0 513 171.031" xml:space="preserve">
<g id="NE">
	<g id="NAE">
		<g id="MOON_1_">
			<g id="MOON">
				<path fill="#BCD6CD" d="M834.938,374.991c-10.163,55.396-63.301,92.061-118.695,81.9
					c-55.395-10.161-92.059-63.304-81.899-118.694c10.16-55.392,63.303-92.061,118.693-81.896
					C808.429,266.459,845.098,319.603,834.938,374.991z"/>
				<path fill="#D3EBDB" d="M800.742,317.377c0,19.53-15.832,35.359-35.362,35.359c-19.525,0-35.356-15.829-35.356-35.359
					c0-19.529,15.832-35.358,35.356-35.358C784.91,282.019,800.742,297.848,800.742,317.377z"/>
				<path fill="#D3EBDB" d="M709.593,343.308c0,13.889-11.259,25.143-25.145,25.143s-25.146-11.254-25.146-25.143
					c0-13.887,11.261-25.145,25.146-25.145S709.593,329.421,709.593,343.308z"/>
				<circle fill="#D3EBDB" cx="774.026" cy="406.168" r="17.287"/>
			</g>
		</g>
		<g id="MAN_1_" display="none">
			<g display="inline">
				<g id="XMLID_3_">
					<g>
						<path fill="#002D56" d="M663.602,343.211c-0.166,0.143-0.332,0.285-0.494,0.434c-0.578,0.496-1.107,0.396-1.75,0.105
							l0.031-0.068c0.615-1.48,2.276-2.319,2.866-3.8c0,0,0.006-0.004,0.006-0.009c0.756-1.31,2.258-3.044,3.064-3.678
							c1.079-7.248,0.865-14.786,2.774-22.011c0.502-1.969,1.568-3.689,2.211-5.595c0.945-2.616,1.321-5.699,2.329-8.455
							l0.041-0.008c-0.63-3.593,0.222-6.604,1.971-9.98c0.983-1.926,5.316-7.002,8.078-5.656l0.1-0.042
							c-0.611-1.48-1.519-2.821-2.592-4.162l-0.019-0.032c-1.784,1.154-3.801,1.678-6.111,0.888
							c-2.178-0.764-4.015-2.693-5.108-4.832c-1.715-3.412-3.334-6.305-1.041-9.354l0.016-0.007
							c-1.864-6.137-1.367-20.571,14.449-17.451c4.664,0.383,11.351,7.739,9.804,12.419l0.001,0.078
							c1.151,0.03,2.286,0.62,2.521,1.666c0.567,1.966-1.427,5.49-3.688,4.527l-0.03,0.034c0.33,3.351,1.505,6.754,3.095,9.729
							c1.34,0.551,3.188,0.618,4.67,0.516l-0.002-0.016c1.548-2.858,8.989-0.365,10.905,0.616c2.113,1.03,4.168,2.567,5.499,4.347
							c3.525,1.506,6.691,3.854,10.135,5.15c2.038,0.699,3.853-0.039,5.808,0.456c6.799,1.222,16.832,7.198,22.763,9.73
							c1.674,1.424,7.761,0.649,9.679,1.621c0.833,0.411,1.734,0.906,2.425,1.488c0.44,0.422,0.786,1.082,1.018,1.438
							c0.69,0.475,1.303,1.028,1.776,1.685l0,0.005c0.381,0.197,0.74,0.41,1.029,0.659c-0.794,1.051-2.156,0.48-3.191,0.079
							c-1.647-0.613-3.302-0.496-5.051-0.771l-0.006,0.037c0.037,0.041,0.068,0.085,0.068,0.085
							c0.443,0.403,2.797,0.884,3.836,1.481c0.762,0.398,1.837,0.958,2.545,1.187c0.788,0.247,1.408,0.471,0.553,1.018
							c-0.807,0.521-1.588,0.069-2.415-0.149c-1.101-0.213-2.507-0.468-3.607-0.681c-1.332-0.315-3.277-0.644-4.803-0.509
							l0.006,0.107c0.621,0.961,4.074,4.86,0.843,4.117c-0.544-1.923-2.641-2.594-3.794-4.07c0.152-1.374-0.697-3.228-1.506-4.376
							c-2.558-0.253-7.363-1.182-9.98-1.288c-6.066-0.231-10.322-1.199-15.827-3.546c-2.543-1.079-4.357-1.517-7.14-2.026
							c-2.517-0.24-8.135-3.627-11.758-4.217l-0.011,0.066c1.498,7.85-2.094,12.839,4.244,22.239l0.109,0.16
							c3.634,0.87,11.3,2.675,15.766,5.244c3.896,2.33,20.431,17.687,26.183,20.354c3.872,1.873,9.373,2.926,13.193,5.443
							c4.76,3.357,17.73,19.1,22.363,22.059l0.006-0.009c5.407,2.97,4.432,3.452,6.182,5.094c1.75,1.642,9.444,7.647,9.393,9.859
							c0.001,1.562,0.287,7.966-1.051,8.942c-1.812,1.319-10.137-1.856-12.038-5.207c-5.027-8.845-10.076-14.311-10.245-15.091
							l-0.01,0.003c-1.112-3.655-9.396-9.523-13.809-11.176c-6.181-2.185-11.253-4.116-15.663-8.897
							c-2.157-2.257-2.941-3.147-6.278-3.675c-5.081-0.596-19.073-6.99-27.321-10.329l-0.079,0.06
							c4.494,5.454,7.621,16.565,10.558,22.051c1.855,3.475,4.413,2.365,6.742,8.063c2.438,5.977,2.362,16.354,5.849,19.908
							l0.005-0.004c3.227,1.82,6.093,3.614,6.204,7.015c-0.186,3.054-1.628,6.208,0.062,8.742
							c4.681,7.019,1.332,14.582-1.608,16.393c-1.5,0.924-5.694-1.838-6.102-5.588c-0.27-3.019-0.352-5.961-0.248-8.822
							c-0.17-9.166-2.771-8.683-2.989-12l-0.02,0.001c-0.891-5.75-7.099-12.971-10.303-17.463
							c-3.577-4.652-1.678-7.422-6.035-11.286c-6.107-5.5-10.507-12.676-15.405-19.453c-2.608-3.496-9.043-12.928-10.752-17.521
							l-0.021,0.007c-1.424-2.518-11.232-10.462-15.592-20.154l-0.159,0.071c-1.144,1.521-2.819,3.5-3.403,5.26
							c-0.945,2.615,0.246,5.298-0.554,7.978c-1.146,3.874-3.2,7.525-4.973,11.297c-0.604,1.42-1.257,2.699-1.67,4.342
							c-0.158,0.837,0.267,2.891-0.013,3.727c-0.411,1.203-1.003,2.327-0.98,3.619c-0.005,1.283,0.266,2.438-0.471,3.639
							c-0.288,0.453-0.544,0.697-0.785,0.109c-0.103-0.339,0.048-0.821-0.008-1.177c-0.045-0.594-0.222-1.215-0.382-1.789
							c-0.118,0.492-0.353,1.009-0.413,1.53c-0.149,0.961-0.183,1.896-0.674,2.804c-0.117,0.17-0.398,0.698-0.651,0.693
							c-0.463-0.03-0.249-0.74-0.225-1.024c0.125-1.213-0.035-2.592,0.292-3.791c-0.418,0.334-0.53,1.076-0.611,1.551
							c-0.209,1.081-0.444,2.623-1.12,3.522c-0.174,0.219-0.492,0.506-0.823,0.278c-0.305-0.218-0.108-0.564-0.102-0.891
							c0.098-1.716,0.263-3.221,0.917-4.792l-0.046-0.042c-0.527,0.573-0.942,1.283-1.225,2.025
							c-0.286,0.786-0.498,1.716-1.001,2.401c-0.27,0.349-0.854,0.742-0.95,0.076C661.796,348.149,663.319,343.866,663.602,343.211z
							"/>
					</g>
					<g>
					</g>
				</g>
			</g>
			<g display="inline">
				<path fill="#002D56" d="M703.059,263.101c-2.037,0.586-4.945-2.315-5.739-3.919c1.386-0.299,2.175-0.23,3.389-1.088
					c-5.25-1.301-5.197-3.959-9.359-6.942c-2.016-1.478-20.95-8.055-22.43,4.109c-1.229,10.112,12.39,14.503,23.438,20.428
					l0.121,0.088c2.907-2.173,3.093-4.811,7.909-7.994c-0.869,0.387-2.999,0.356-3.862-0.06
					C699.33,267.333,702.228,264.827,703.059,263.101z"/>
			</g>
		</g>
		<g id="NEW_1_">
			<g>
				<g id="XMLID_1_">
					<g>
						<path fill="#002D56" d="M669.783,340.3c-0.424,0.306-0.563,1.041-0.66,1.508c-0.246,1.063-0.532,2.576-1.234,3.448
							c-0.178,0.196-0.506,0.488-0.826,0.246c-0.292-0.231-0.086-0.567-0.069-0.886c0.16-1.7,0.376-3.184,1.08-4.717l-0.044-0.043
							c-0.544,0.554-0.973,1.233-1.286,1.967c-0.31,0.763-0.555,1.681-1.077,2.342c-0.279,0.331-0.872,0.699-0.943,0.037
							c-0.039-0.422,1.623-4.608,1.926-5.247c-0.169,0.136-0.339,0.271-0.504,0.411c-0.59,0.472-1.111,0.354-1.737,0.042
							l0.033-0.065c0.661-1.444,2.336-2.216,2.973-3.66c0.01-0.003,0.011-0.008,0.013-0.017c0.794-1.267,2.342-2.926,3.158-3.52
							l0.001-0.005c1.326-7.139,1.383-14.61,3.531-21.694c0.568-1.932,1.685-3.598,2.389-5.462c1.029-2.556,1.511-5.596,2.608-8.288
							l0.041-0.007c-0.496-3.579,0.455-6.531,2.306-9.807c1.043-1.876,5.513-6.739,8.2-5.313l0.101-0.037
							c-0.552-1.488-1.403-2.849-2.418-4.214l-0.022-0.034c-1.807,1.079-3.818,1.522-6.077,0.657
							c-2.13-0.828-3.88-2.805-4.886-4.966c-1.578-3.435-3.076-6.361-0.697-9.299l0.016-0.006
							c-1.627-6.143-0.623-20.403,14.915-16.767c0.004,0.001,0.009,0.002,0.014,0.003c4.605,0.54,10.963,8.067,9.265,12.646
							l-0.001,0.077c1.139,0.072,2.235,0.7,2.436,1.744c0.496,1.969-1.616,5.399-3.826,4.345l-0.017,0.035
							c0.207,3.33,1.249,6.745,2.722,9.745c1.303,0.593,3.13,0.725,4.602,0.676l-0.002-0.015c1.634-2.771,8.913-0.038,10.775,1.003
							c2.055,1.095,4.04,2.691,5.294,4.501c3.437,1.616,6.483,4.053,9.847,5.459c1.993,0.761,3.818,0.09,5.734,0.659
							c6.686,1.441,16.388,7.713,22.176,10.428c1.584,1.484,7.673,0.932,9.542,1.964c0.81,0.437,1.684,0.96,2.347,1.565
							c0.422,0.429,0.745,1.1,0.962,1.456c0.666,0.499,1.252,1.069,1.692,1.74c0.372,0.204,0.719,0.428,0.997,0.685
							c-0.824,1.012-2.152,0.398-3.162-0.035c-1.609-0.667-3.252-0.609-4.974-0.944l-0.008,0.038
							c0.035,0.041,0.064,0.091,0.064,0.091c0.425,0.415,2.738,0.97,3.747,1.599c0.74,0.422,1.785,1.015,2.478,1.266
							c0.771,0.272,1.377,0.516,0.511,1.031c-0.815,0.478-1.574,0.004-2.386-0.233c-1.083-0.25-2.465-0.553-3.548-0.803
							c-1.311-0.365-3.229-0.766-4.74-0.686l0.005,0.113c0.582,0.973,3.865,4.958,0.684,4.105c-0.47-1.929-2.519-2.657-3.607-4.165
							c0.198-1.346-0.573-3.211-1.327-4.38l-0.004-0.001c-2.523-0.346-7.247-1.438-9.84-1.637
							c-5.998-0.445-10.177-1.555-15.543-4.075c-2.48-1.159-4.261-1.657-6.998-2.261c-2.483-0.328-7.926-3.881-11.492-4.595
							l-0.015,0.069c1.205,7.822-2.529,12.634,3.41,22.172l0.104,0.158c3.566,0.995,11.092,3.056,15.423,5.754
							c3.775,2.446,19.598,18.246,25.199,21.087c3.768,1.992,9.176,3.231,12.869,5.86c4.594,3.494,16.872,19.553,21.355,22.643
							l0.007-0.013c5.249,3.129,4.265,3.576,5.939,5.264c1.675,1.683,9.078,7.909,8.948,10.097c-0.054,1.547,0,7.897-1.359,8.816
							c-1.842,1.247-9.972-2.194-11.735-5.58c-4.672-8.958-9.489-14.558-9.605-15.312l-0.009-0.002
							c-0.972-3.654-8.965-9.76-13.275-11.554c-6.042-2.383-10.996-4.477-15.191-9.367c-2.055-2.313-2.8-3.222-6.084-3.862
							c-5.01-0.771-18.637-7.598-26.684-11.202l-0.08,0.057c4.256,5.561,6.955,16.678,9.668,22.209
							c1.713,3.508,4.285,2.5,6.388,8.226c2.202,5.999,1.758,16.267,5.076,19.923l0.011-0.007c3.13,1.918,5.905,3.791,5.893,7.167
							c-0.292,3.012-1.833,6.084-0.251,8.658c4.385,7.115,0.8,14.485-2.176,16.173c-1.518,0.857-5.572-2.022-5.842-5.75
							c-0.16-2.993-0.136-5.914,0.069-8.744c0.16-9.086-2.438-8.702-2.531-11.993l-0.02,0.001
							c-0.679-5.716-6.567-13.092-9.58-17.653c-3.377-4.73-1.397-7.409-5.573-11.39c-5.85-5.664-9.951-12.926-14.56-19.807
							c-2.458-3.555-8.493-13.123-10.02-17.734l-0.021,0.005c-1.32-2.544-10.749-10.759-14.719-20.516l-0.159,0.064
							c-1.188,1.471-2.917,3.365-3.557,5.087c-1.03,2.561,0.053,5.259-0.834,7.884c-1.271,3.79-3.437,7.337-5.326,11.008
							c-0.649,1.385-1.341,2.628-1.808,4.239c-0.187,0.828,0.161,2.872-0.145,3.685c-0.452,1.187-1.077,2.273-1.101,3.554
							c-0.051,1.274,0.178,2.418-0.596,3.586c-0.302,0.443-0.563,0.671-0.78,0.076c-0.091-0.336,0.076-0.808,0.031-1.152
							c-0.021-0.599-0.176-1.21-0.313-1.794c-0.136,0.488-0.385,0.986-0.463,1.501c-0.183,0.949-0.249,1.871-0.769,2.756
							c-0.121,0.159-0.417,0.672-0.667,0.654c-0.458-0.042-0.222-0.732-0.188-1.013C669.526,342.841,669.427,341.472,669.783,340.3z
							"/>
					</g>
					<g>
						<path fill="none" stroke="#1F376B" stroke-width="0.5" d="M690.606,246.909c0.08,0.017,0.164,0.033,0.242,0.055"/>
						<path fill="none" stroke="#1F376B" stroke-width="0.5" d="M675.681,263.683c0.001-0.004-0.004-0.005-0.003-0.01
							c-1.627-6.143-0.623-20.403,14.915-16.767"/>
						<path fill="none" stroke="#1F376B" stroke-width="0.5" d="M675.662,263.679c-2.379,2.938-0.881,5.864,0.697,9.299
							c1.005,2.161,2.755,4.138,4.886,4.966c2.259,0.865,4.27,0.422,6.077-0.657c2.971-1.781,5.371-5.288,7.353-7.509"/>
						<path fill="none" stroke="#1F376B" stroke-width="0.5" d="M687.343,277.32c1.016,1.365,1.867,2.726,2.418,4.214
							c0.292,0.771,0.503,1.58,0.616,2.44"/>
						<path fill="none" stroke="#1F376B" stroke-width="0.5" d="M697.261,261.031c0.407-1.045,1.524-1.474,2.609-1.399
							c1.139,0.072,2.235,0.7,2.436,1.744c0.496,1.969-1.616,5.399-3.826,4.345c-0.147-0.064-0.293-0.158-0.436-0.267"/>
						<path fill="none" stroke="#1F376B" stroke-width="0.5" d="M698.462,265.756c0.207,3.33,1.249,6.745,2.722,9.745
							c0.061,0.129,0.126,0.26,0.191,0.39"/>
						<path fill="none" stroke="#1F376B" stroke-width="0.5" d="M701.135,275.48c0.018,0.009,0.031,0.017,0.049,0.021
							c1.303,0.593,3.13,0.725,4.602,0.676c0.235-0.01,0.466-0.02,0.679-0.034"/>
						<path fill="none" stroke="#1F376B" stroke-width="0.5" d="M684.775,291.635c-1.057,4.161-0.341,8.342,1.261,12.269
							c3.971,9.757,13.399,17.972,14.719,20.516"/>
						<path fill="none" stroke="#1F376B" stroke-width="0.5" d="M714.994,290.12c1.205,7.822-2.529,12.634,3.41,22.172"/>
						<path fill="none" stroke="#1F376B" stroke-width="0.5" d="M718.507,312.45c3.566,0.995,11.092,3.056,15.423,5.754
							c3.775,2.446,19.598,18.246,25.199,21.087c3.768,1.992,9.176,3.231,12.869,5.86c4.594,3.494,16.872,19.553,21.355,22.643
							c0.026,0.016,0.046,0.034,0.072,0.05"/>
						<path fill="none" stroke="#1F376B" stroke-width="0.5" d="M724.304,335.079c8.047,3.604,21.674,10.431,26.684,11.202
							c3.284,0.641,4.03,1.55,6.084,3.862c4.195,4.891,9.149,6.984,15.191,9.367c4.31,1.794,12.303,7.899,13.275,11.554"/>
						<path fill="none" stroke="#1F376B" stroke-width="0.5" d="M700.647,324.002c0.036,0.13,0.08,0.271,0.128,0.412
							c1.527,4.611,7.562,14.18,10.02,17.734c4.609,6.881,8.71,14.143,14.56,19.807c4.176,3.98,2.196,6.659,5.573,11.39
							c3.013,4.562,8.901,11.938,9.58,17.653"/>
						<path fill="none" stroke="#1F376B" stroke-width="0.5" d="M724.183,335.078c0.016,0.019,0.027,0.035,0.042,0.058
							c4.256,5.561,6.955,16.678,9.668,22.209c1.713,3.508,4.285,2.5,6.388,8.226c2.202,5.999,1.758,16.267,5.076,19.923
							c0.004,0.006,0.012,0.013,0.016,0.019"/>
						<path fill="none" stroke="#1F376B" stroke-width="0.5" d="M745.367,385.486c3.13,1.918,5.905,3.791,5.893,7.167
							c-0.292,3.012-1.833,6.084-0.251,8.658c4.385,7.115,0.8,14.485-2.176,16.173c-1.518,0.857-5.572-2.022-5.842-5.75
							c-0.16-2.993-0.136-5.914,0.069-8.744c0.16-9.086-2.438-8.702-2.531-11.993c-0.005-0.021-0.005-0.045-0.005-0.069"/>
						<path fill="none" stroke="#1F376B" stroke-width="0.5" d="M785.542,371.021c-0.003,0.014,0,0.024,0.005,0.045
							c0.116,0.754,4.933,6.354,9.605,15.312c1.763,3.386,9.893,6.827,11.735,5.58c1.36-0.919,1.305-7.27,1.359-8.816
							c0.13-2.188-7.273-8.414-8.948-10.097c-1.674-1.688-0.69-2.135-5.939-5.264"/>
						<path fill="none" stroke="#1F376B" stroke-width="0.5" d="M699.871,259.555c1.699-4.578-4.659-12.105-9.265-12.646
							c-0.004-0.001-0.009-0.002-0.014-0.003c-0.019-0.004-0.039-0.004-0.057-0.008"/>
						<path fill="none" stroke="#1F376B" stroke-width="0.5" d="M705.784,276.162c1.634-2.771,8.913-0.038,10.775,1.003
							c2.055,1.095,4.04,2.691,5.294,4.501c0.308,0.439,0.57,0.888,0.78,1.351"/>
						<path fill="none" stroke="#1F376B" stroke-width="0.5" d="M721.84,281.658c0.004,0.001,0.009,0.002,0.013,0.008
							c3.437,1.616,6.483,4.053,9.847,5.459c1.993,0.761,3.818,0.09,5.734,0.659c6.686,1.441,16.388,7.713,22.176,10.428
							c0.018,0.009,0.035,0.018,0.053,0.026"/>
						<path fill="none" stroke="#1F376B" stroke-width="0.5" d="M713.05,290.032c0.539-0.155,1.206-0.134,1.958,0.019
							c3.566,0.714,9.009,4.267,11.492,4.595c2.737,0.604,4.518,1.102,6.998,2.261c5.366,2.521,9.546,3.63,15.543,4.075
							c2.593,0.199,7.317,1.291,9.84,1.637"/>
						<path fill="none" stroke="#1F376B" stroke-width="0.5" d="M685.877,303.968c-1.188,1.471-2.917,3.365-3.557,5.087
							c-1.03,2.561,0.053,5.259-0.834,7.884c-1.271,3.79-3.437,7.337-5.326,11.008c-0.649,1.385-1.341,2.628-1.808,4.239"/>
						<path fill="none" stroke="#1F376B" stroke-width="0.5" d="M689.661,281.571c-2.687-1.427-7.157,3.437-8.2,5.313
							c-1.851,3.275-2.802,6.228-2.306,9.807c0.029,0.211,0.063,0.423,0.101,0.635"/>
						<line fill="none" stroke="#1F376B" stroke-width="0.5" x1="670.586" y1="332.146" x2="670.582" y2="332.165"/>
						<path fill="none" stroke="#1F376B" stroke-width="0.5" d="M679.115,296.697c-1.097,2.692-1.579,5.732-2.608,8.288
							c-0.705,1.864-1.821,3.53-2.389,5.462c-2.147,7.084-2.205,14.556-3.531,21.694"/>
						<path fill="none" stroke="#1F376B" stroke-width="0.5" d="M758.819,302.518c0.022,0.033,0.044,0.067,0.062,0.101l0.004,0.001
							c0.754,1.169,1.525,3.034,1.327,4.38c0.001,0.021-0.003,0.039-0.007,0.058"/>
						<path fill="none" stroke="#1F376B" stroke-width="0.5" d="M760.186,306.965c0.007,0.011,0.015,0.022,0.027,0.034
							c1.088,1.508,3.137,2.236,3.607,4.165c0.013,0.031,0.017,0.057,0.025,0.088"/>
						<path fill="none" stroke="#1F376B" stroke-width="0.5" d="M763.136,307.059c0.582,0.973,3.865,4.958,0.684,4.105
							c-0.024-0.001-0.047-0.01-0.07-0.015"/>
						<path fill="none" stroke="#1F376B" stroke-width="0.5" d="M762.443,307.021c0.217-0.038,0.446-0.063,0.688-0.076
							c1.511-0.08,3.429,0.32,4.74,0.686c1.083,0.25,2.465,0.553,3.548,0.803c0.812,0.237,1.57,0.711,2.386,0.233
							c0.867-0.516,0.26-0.759-0.511-1.031c-0.692-0.251-1.738-0.844-2.478-1.266c-1.008-0.629-3.322-1.184-3.747-1.599
							c0,0-0.029-0.05-0.064-0.091"/>
						<path fill="none" stroke="#1F376B" stroke-width="0.5" d="M766.976,304.635c0.014,0.003,0.023,0.005,0.038,0.008
							c1.722,0.335,3.365,0.277,4.974,0.944c1.01,0.434,2.338,1.047,3.162,0.035c-0.277-0.257-0.625-0.48-0.997-0.685
							c-0.788-0.422-1.708-0.75-2.409-1.081c-1.114-0.495-2.799-0.281-3.748-1.01"/>
						<path fill="none" stroke="#1F376B" stroke-width="0.5" d="M768.101,300.945c1.42,0.568,3.047,1.263,4.36,2.252
							c0.666,0.499,1.252,1.069,1.692,1.74"/>
						<path fill="none" stroke="#1F376B" stroke-width="0.5" d="M759.609,298.212c1.584,1.484,7.673,0.932,9.542,1.964
							c0.81,0.437,1.684,0.96,2.347,1.565c0.422,0.429,0.745,1.1,0.962,1.456"/>
						<path fill="none" stroke="#1F376B" stroke-width="0.5" d="M670.615,332.123c-0.007,0.008-0.017,0.011-0.028,0.019
							l-0.001,0.005c-0.815,0.594-2.363,2.253-3.158,3.52"/>
						<path fill="none" stroke="#1F376B" stroke-width="0.5" d="M668.325,337.552c-0.551,0.518-1.119,0.955-1.675,1.403
							c-0.169,0.136-0.339,0.271-0.504,0.411c-0.59,0.472-1.111,0.354-1.737,0.042c-0.031-0.016-0.066-0.033-0.102-0.05"/>
						<path fill="none" stroke="#1F376B" stroke-width="0.5" d="M664.442,339.343c0.661-1.444,2.336-2.216,2.973-3.66
							c0.01-0.003,0.011-0.008,0.013-0.017c0.008-0.019,0.018-0.04,0.027-0.063"/>
						<path fill="none" stroke="#1F376B" stroke-width="0.5" d="M672.188,335.63c-0.891,2.054-2.062,2.02-3.673,2.137"/>
						<path fill="none" stroke="#1F376B" stroke-width="0.5" d="M666.668,338.915c-0.008,0.014-0.011,0.027-0.018,0.04
							c-0.303,0.639-1.964,4.825-1.926,5.247c0.071,0.662,0.664,0.294,0.943-0.037c0.522-0.661,0.767-1.579,1.077-2.342
							c0.313-0.733,0.742-1.413,1.286-1.967c0.088-0.094,0.179-0.182,0.275-0.269"/>
						<path fill="none" stroke="#1F376B" stroke-width="0.5" d="M668.075,339.899c-0.704,1.533-0.92,3.017-1.08,4.717
							c-0.017,0.318-0.224,0.654,0.069,0.886c0.32,0.242,0.648-0.05,0.826-0.246c0.702-0.872,0.988-2.385,1.234-3.448
							c0.097-0.467,0.236-1.202,0.66-1.508c0.034-0.022,0.067-0.045,0.101-0.063"/>
						<path fill="none" stroke="#1F376B" stroke-width="0.5" d="M669.796,340.259c-0.003,0.014-0.01,0.026-0.013,0.041
							c-0.356,1.172-0.257,2.541-0.423,3.738c-0.034,0.28-0.271,0.971,0.188,1.013c0.25,0.018,0.546-0.495,0.667-0.654
							c0.521-0.885,0.586-1.807,0.769-2.756c0.078-0.515,0.328-1.013,0.463-1.501"/>
						<path fill="none" stroke="#1F376B" stroke-width="0.5" d="M671.438,340.094c0.002,0.015,0.008,0.031,0.01,0.046
							c0.137,0.584,0.292,1.195,0.313,1.794c0.045,0.345-0.122,0.816-0.031,1.152c0.217,0.595,0.479,0.367,0.78-0.076
							c0.774-1.168,0.545-2.312,0.596-3.586c0.023-1.28,0.649-2.367,1.101-3.554c0.306-0.813-0.042-2.856,0.145-3.685
							c0.004-0.019,0.007-0.037,0.01-0.052"/>
					</g>
				</g>
			</g>
			<g>
				<path fill="#002D56" d="M693.596,253.926c-10.73-6.265-16.616,8.047-18.54-1.863c-0.12-0.612-0.038-1.184,0.15-1.672
					c0.357-0.926,1.098-1.553,1.612-1.605c2.207-7.386,21.209-4.872,23.748,0.45c6.676,4.388,3.258,15.761-0.852,20.148
					c-1.752,0.985-2.182-0.555-1.943-2.901c0.145-1.407,4.406-2.679,2.357-6.751c-0.634-1.262-3.63,0.638-4.434,3.29
					c-1.53,0.16-2.73,1.64-1.859-9.045"/>
			</g>
		</g>
		
			<text transform="matrix(1 0 0 1 618.4878 431.2441)" fill="#002D56" font-family="'OvertheRainbow'" font-size="171.0273" letter-spacing="-8">N E</text>
	</g>
</g>
<g id="NAE_2_">
	<g id="NAE_3_">
		<g id="MOON_14_">
			<g id="MOON_16_">
				<path fill="#BCD6CD" d="M1096.007,366.939c-9.313,50.771-58.015,84.376-108.787,75.065
					c-50.771-9.315-84.376-58.022-75.064-108.79c9.312-50.767,58.021-84.373,108.786-75.063
					C1071.711,267.465,1105.32,316.17,1096.007,366.939z"/>
				<path fill="#D3EBDB" d="M1064.667,314.128c0,17.904-14.511,32.411-32.411,32.411c-17.896,0-32.406-14.507-32.406-32.411
					c0-17.893,14.511-32.405,32.406-32.405C1050.156,281.723,1064.667,296.235,1064.667,314.128z"/>
				<path fill="#D3EBDB" d="M981.125,337.897c0,12.729-10.319,23.046-23.045,23.046c-12.727,0-23.048-10.316-23.048-23.046
					c0-12.725,10.321-23.043,23.048-23.043C970.806,314.854,981.125,325.173,981.125,337.897z"/>
				<circle fill="#D3EBDB" cx="1040.18" cy="395.513" r="15.844"/>
			</g>
			<g id="MAN_9_" display="none">
				<g display="inline">
					<g id="XMLID_9_">
						<g>
							<path fill="#002D56" d="M952.818,301.934c-1.709-5.625-1.253-18.854,13.243-15.995c4.274,0.351,10.404,7.094,8.986,11.383
								l0.001,0.071c1.052,0.023,2.09,0.568,2.307,1.526c0.527,1.808-1.31,5.046-3.388,4.145l-0.015,0.033
								c0.302,3.075,1.378,6.194,2.835,8.922c1.229,0.505,2.923,0.566,4.282,0.468l-0.002-0.014
								c1.418-2.616,8.238-0.331,9.995,0.568c1.937,0.944,3.82,2.354,5.04,3.984c0.004,0.001,0.004,0.005,0.004,0.005
								c3.231,1.376,6.129,3.527,9.285,4.715c1.868,0.642,3.531-0.035,5.323,0.419c6.228,1.119,15.431,6.603,20.863,8.918
								c1.535,1.305,7.114,0.595,8.872,1.486c0.763,0.376,1.589,0.831,2.222,1.364c0.404,0.387,0.721,0.991,0.933,1.318
								c0.633,0.435,1.194,0.942,1.628,1.544l-0.001,0.009c0.35,0.176,0.679,0.371,0.944,0.6c-0.732,0.962-1.976,0.44-2.924,0.072
								c-1.51-0.563-3.027-0.455-4.63-0.706l-0.006,0.034c0.034,0.037,0.059,0.077,0.059,0.077c0.411,0.37,2.563,0.81,3.521,1.358
								c0.698,0.365,1.684,0.878,2.333,1.088c0.723,0.222,1.287,0.426,0.506,0.937c-0.738,0.473-1.455,0.056-2.213-0.138
								c-1.007-0.203-2.296-0.433-3.31-0.628c-1.216-0.289-2.999-0.589-4.398-0.466l0.005,0.099c0.57,0.881,3.734,4.454,0.773,3.773
								c-0.5-1.763-2.42-2.378-3.478-3.73c0.14-1.26-0.638-2.963-1.38-4.012c-2.345-0.23-6.749-1.082-9.147-1.18
								c-5.56-0.213-9.46-1.104-14.506-3.25c-2.331-0.989-3.998-1.391-6.548-1.858c-2.302-0.219-7.452-3.323-10.773-3.864
								l-0.011,0.065c1.374,7.19-1.918,11.763,3.891,20.379l0.1,0.147c3.331,0.793,10.356,2.455,14.45,4.806
								c3.571,2.137,18.726,16.211,23.994,18.655c3.553,1.717,8.595,2.683,12.097,4.99c4.363,3.076,16.249,17.51,20.496,20.222
								l0.006-0.012c4.956,2.722,4.062,3.163,5.666,4.668c1.604,1.5,8.656,7.009,8.609,9.036c0.001,1.432,0.263,7.301-0.963,8.196
								c-1.661,1.21-9.291-1.701-11.033-4.776c-4.619-8.122-9.258-13.139-9.391-13.827l-0.009,0.003
								c-1.02-3.351-8.612-8.729-12.656-10.244c-5.666-2.002-10.314-3.772-14.36-8.154c-1.972-2.068-2.691-2.885-5.749-3.368
								c-4.657-0.546-17.482-6.407-25.042-9.467l-0.072,0.055c4.12,4.999,6.985,15.183,9.677,20.21
								c1.701,3.186,4.044,2.168,6.179,7.391c2.236,5.469,2.167,14.98,5.356,18.25l0.01-0.007c2.958,1.669,5.584,3.313,5.687,6.43
								c-0.169,2.794-1.492,5.69,0.057,8.013c4.29,6.433,1.221,13.364-1.474,15.024c-1.375,0.847-5.219-1.685-5.592-5.126
								c-0.248-2.762-0.323-5.459-0.228-8.082c-0.154-8.409-2.544-7.959-2.739-11.003l-0.018,0.002
								c-0.817-5.267-6.511-11.886-9.444-16.002c-3.279-4.265-1.539-6.803-5.531-10.344c-5.597-5.042-9.63-11.618-14.119-17.83
								c-2.391-3.204-8.289-11.849-9.854-16.058l-0.023,0.005c-1.301-2.308-10.291-9.588-14.287-18.472l-0.145,0.065
								c-1.048,1.395-2.583,3.203-3.12,4.82c-0.866,2.397,0.225,4.856-0.508,7.313c-1.049,3.546-2.933,6.896-4.558,10.354
								c-0.554,1.301-1.157,2.473-1.531,3.979c-0.145,0.767,0.245,2.649-0.016,3.415c-0.373,1.104-0.916,2.134-0.895,3.318
								c-0.004,1.176,0.245,2.233-0.432,3.335c-0.263,0.415-0.499,0.639-0.719,0.101c-0.094-0.312,0.044-0.753-0.008-1.08
								c-0.041-0.544-0.203-1.112-0.351-1.639c-0.113,0.45-0.323,0.924-0.378,1.402c-0.137,0.88-0.167,1.738-0.618,2.569
								c-0.107,0.156-0.365,0.64-0.597,0.636c-0.424-0.027-0.228-0.679-0.206-0.938c0.113-1.107-0.028-2.371,0.267-3.471
								c-0.383,0.302-0.486,0.986-0.561,1.421c-0.191,0.987-0.406,2.399-1.026,3.225c-0.159,0.196-0.451,0.464-0.755,0.255
								c-0.279-0.199-0.099-0.518-0.093-0.816c0.09-1.572,0.241-2.951,0.84-4.392l-0.042-0.039
								c-0.483,0.525-0.863,1.177-1.123,1.856c-0.262,0.721-0.457,1.573-0.917,2.201c-0.248,0.319-0.783,0.68-0.87,0.062
								c-0.051-0.38,1.345-4.306,1.604-4.906c-0.152,0.131-0.304,0.262-0.453,0.397c-0.53,0.455-1.015,0.363-1.604,0.092
								l0.028-0.058c0.559-1.358,2.086-2.126,2.626-3.482c0.001-0.005,0.001-0.005,0.006-0.008c0.693-1.201,2.07-2.791,2.809-3.371
								c0.988-6.64,0.792-13.553,2.542-20.174c0.46-1.8,1.438-3.382,2.027-5.129c0.866-2.397,1.211-5.224,2.135-7.749l0.037-0.007
								c-0.582-3.294,0.204-6.054,1.806-9.144c0.902-1.77,4.873-6.418,7.405-5.188l0.091-0.038c-0.56-1.357-1.391-2.591-2.376-3.815
								l-0.021-0.03c-1.63,1.059-3.479,1.539-5.596,0.81c-2.001-0.695-3.681-2.463-4.683-4.424
								c-1.572-3.127-3.055-5.778-0.954-8.573L952.818,301.934z"/>
						</g>
						<g>
						</g>
					</g>
				</g>
				<g display="inline">
					<path fill="#002D56" d="M983.142,298.403c-1.868,0.54-4.533-2.12-5.259-3.59c1.269-0.274,1.99-0.211,3.104-1
						c-4.812-1.188-4.764-3.629-8.578-6.359c-1.847-1.356-19.201-7.382-20.558,3.767c-1.127,9.268,11.355,13.289,21.482,18.721
						l0.108,0.081c2.668-1.989,2.835-4.409,7.251-7.323c-0.796,0.353-2.747,0.323-3.539-0.059
						C979.723,302.285,982.379,299.988,983.142,298.403z"/>
				</g>
			</g>
			<g id="NEW_2_">
				<g>
					<g id="XMLID_2_">
						<g>
							<path fill="#002D56" d="M948.337,370.411c-0.404,0.292-0.537,0.993-0.63,1.442c-0.235,1.015-0.506,2.453-1.176,3.284
								c-0.169,0.188-0.482,0.466-0.788,0.239c-0.278-0.225-0.082-0.546-0.064-0.849c0.151-1.617,0.358-3.036,1.03-4.498
								l-0.042-0.042c-0.518,0.524-0.928,1.177-1.227,1.876c-0.295,0.728-0.53,1.607-1.026,2.229
								c-0.268,0.325-0.832,0.672-0.901,0.045c-0.035-0.412,1.536-4.365,1.832-5.005c-0.162,0.129-0.319,0.259-0.477,0.394
								c-0.563,0.449-1.059,0.336-1.656,0.035l0.031-0.059c0.63-1.377,2.229-2.117,2.836-3.495c0.001-0.004,0.007-0.012,0.013-0.016
								c0.757-1.207,2.233-2.785,3.01-3.352c1.271-6.812,1.319-13.933,3.37-20.701c0.541-1.838,1.605-3.427,2.277-5.204
								c0.982-2.442,1.441-5.336,2.487-7.904l0.039-0.006c-0.473-3.413,0.434-6.229,2.2-9.356c0.994-1.785,5.255-6.418,7.818-5.058
								l0.1-0.034c-0.531-1.42-1.338-2.717-2.311-4.02l-0.021-0.037c-1.719,1.03-3.642,1.456-5.795,0.627
								c-2.032-0.785-3.701-2.67-4.66-4.731c-1.503-3.279-2.933-6.07-0.665-8.867l0.015-0.006
								c-1.551-5.861-0.593-19.461,14.224-15.993c0.009,0.002,0.023,0,0.031,0.006c4.388,0.534,10.434,7.704,8.817,12.056
								l-0.001,0.074c1.086,0.068,2.131,0.667,2.322,1.668c0.474,1.872-1.541,5.148-3.648,4.143l-0.016,0.029
								c0.197,3.18,1.19,6.433,2.591,9.292c1.247,0.565,2.991,0.688,4.392,0.646l-0.001-0.015c1.557-2.638,8.499-0.035,10.274,0.961
								c1.957,1.039,3.846,2.557,5.042,4.282c0.005,0.001,0.009,0.002,0.008,0.006c3.277,1.542,6.182,3.865,9.391,5.202
								c1.901,0.726,3.639,0.094,5.468,0.628c6.375,1.379,15.627,7.36,21.146,9.949c1.512,1.41,7.318,0.884,9.101,1.868
								c0.771,0.425,1.606,0.915,2.237,1.496c0.401,0.414,0.709,1.054,0.918,1.385l-0.006,0.008
								c0.636,0.472,1.199,1.021,1.619,1.656l-0.001,0.004c0.359,0.191,0.686,0.408,0.951,0.653
								c-0.786,0.965-2.053,0.381-3.016-0.034c-1.534-0.64-3.1-0.585-4.743-0.899l-0.007,0.035c0.034,0.035,0.061,0.087,0.061,0.087
								c0.406,0.392,2.613,0.921,3.575,1.516c0.706,0.402,1.702,0.968,2.362,1.207c0.734,0.265,1.312,0.501,0.485,0.993
								c-0.776,0.451-1.498-0.006-2.275-0.224c-1.032-0.238-2.35-0.531-3.383-0.765c-1.245-0.353-3.071-0.729-4.516-0.653
								l0.002,0.103c0.554,0.928,3.68,4.731,0.655,3.92c-0.451-1.844-2.406-2.534-3.443-3.977c0.189-1.288-0.541-3.065-1.267-4.173
								c-2.406-0.329-6.915-1.371-9.387-1.565c-5.72-0.421-9.707-1.479-14.824-3.882c-2.364-1.11-4.063-1.58-6.673-2.156
								c-2.366-0.321-7.556-3.71-10.958-4.386l-0.014,0.066c1.147,7.464-2.412,12.047,3.251,21.147l0.099,0.15
								c3.401,0.945,10.578,2.914,14.708,5.487c3.601,2.329,18.69,17.391,24.03,20.109c3.594,1.892,8.751,3.077,12.273,5.584
								c4.381,3.327,16.081,18.64,20.359,21.597l0.012-0.017c5.006,2.983,4.066,3.415,5.664,5.02
								c1.597,1.605,8.657,7.542,8.534,9.625c-0.053,1.479-0.001,7.539-1.298,8.416c-1.757,1.189-9.509-2.093-11.189-5.326
								c-4.456-8.542-9.05-13.878-9.16-14.602l-0.01,0.003c-0.927-3.485-8.548-9.312-12.659-11.018
								c-5.761-2.277-10.485-4.273-14.486-8.938c-1.959-2.205-2.67-3.072-5.803-3.679c-4.776-0.74-17.772-7.245-25.444-10.691
								l-0.082,0.058c4.059,5.303,6.632,15.904,9.224,21.18c1.633,3.35,4.086,2.384,6.091,7.848
								c2.101,5.717,1.676,15.513,4.841,18.995l0.011-0.007c2.984,1.834,5.631,3.615,5.619,6.84
								c-0.278,2.871-1.746,5.797-0.239,8.256c4.182,6.781,0.764,13.805-2.075,15.419c-1.448,0.821-5.313-1.929-5.571-5.483
								c-0.152-2.859-0.129-5.645,0.065-8.334c0.152-8.665-2.325-8.299-2.413-11.441l-0.004-0.001l-0.015,0.002
								c-0.648-5.447-6.262-12.485-9.135-16.835c-3.221-4.506-1.333-7.065-5.315-10.857c-5.579-5.401-9.49-12.326-13.885-18.887
								c-2.344-3.391-8.099-12.515-9.555-16.918l-0.02,0.006c-1.258-2.431-10.25-10.261-14.037-19.56l-0.152,0.061
								c-1.133,1.403-2.78,3.205-3.393,4.852c-0.981,2.438,0.052,5.011-0.795,7.518c-1.213,3.615-3.277,6.997-5.079,10.494
								c-0.618,1.319-1.279,2.505-1.724,4.042c-0.179,0.794,0.153,2.743-0.138,3.514c-0.431,1.131-1.026,2.163-1.05,3.394
								c-0.048,1.211,0.17,2.301-0.568,3.415c-0.288,0.423-0.537,0.64-0.744,0.072c-0.087-0.32,0.071-0.766,0.029-1.099
								c-0.021-0.566-0.17-1.146-0.299-1.706c-0.128,0.461-0.366,0.931-0.441,1.426c-0.175,0.911-0.238,1.789-0.734,2.633
								c-0.115,0.152-0.397,0.637-0.635,0.62c-0.437-0.045-0.213-0.694-0.181-0.962
								C948.091,372.839,947.998,371.529,948.337,370.411z"/>
						</g>
						<g>
							<path fill="none" stroke="#1F376B" stroke-width="0.5" d="M968.212,281.355c0.071,0.016,0.143,0.03,0.213,0.049"/>
							<path fill="none" stroke="#1F376B" stroke-width="0.5" d="M953.96,297.353c0.001-0.004-0.003-0.005-0.002-0.01
								c-1.551-5.861-0.593-19.461,14.224-15.993"/>
							<path fill="none" stroke="#1F376B" stroke-width="0.5" d="M953.942,297.349c-2.268,2.797-0.839,5.588,0.665,8.867
								c0.958,2.062,2.627,3.946,4.66,4.731c2.153,0.829,4.076,0.403,5.795-0.627c2.833-1.698,5.122-5.038,7.011-7.156"/>
							<path fill="none" stroke="#1F376B" stroke-width="0.5" d="M965.082,310.357c0.973,1.303,1.78,2.6,2.311,4.02
								c0.278,0.735,0.477,1.501,0.583,2.326"/>
							<path fill="none" stroke="#1F376B" stroke-width="0.5" d="M974.54,294.819c0.389-0.996,1.458-1.404,2.488-1.334
								c1.086,0.068,2.131,0.667,2.322,1.668c0.474,1.872-1.541,5.148-3.648,4.143c-0.141-0.062-0.281-0.146-0.416-0.254"/>
							<path fill="none" stroke="#1F376B" stroke-width="0.5" d="M975.686,299.325c0.197,3.18,1.19,6.433,2.591,9.292
								c0.063,0.124,0.125,0.248,0.187,0.373"/>
							<path fill="none" stroke="#1F376B" stroke-width="0.5" d="M978.235,308.599c0.012,0.007,0.025,0.015,0.042,0.019
								c1.247,0.565,2.991,0.688,4.392,0.646c0.229-0.008,0.445-0.019,0.647-0.032"/>
							<path fill="none" stroke="#1F376B" stroke-width="0.5" d="M962.633,324.008c-1.008,3.969-0.324,7.951,1.203,11.7
								c3.788,9.299,12.779,17.129,14.037,19.56"/>
							<path fill="none" stroke="#1F376B" stroke-width="0.5" d="M991.451,322.56c1.147,7.464-2.412,12.047,3.251,21.147"/>
							<path fill="none" stroke="#1F376B" stroke-width="0.5" d="M994.8,343.857c3.401,0.945,10.578,2.914,14.708,5.487
								c3.601,2.329,18.69,17.391,24.03,20.109c3.594,1.892,8.751,3.077,12.273,5.584c4.381,3.327,16.081,18.64,20.359,21.597
								c0.025,0.014,0.049,0.033,0.073,0.048"/>
							<path fill="none" stroke="#1F376B" stroke-width="0.5" d="M1000.33,365.429c7.672,3.446,20.668,9.951,25.444,10.691
								c3.133,0.606,3.844,1.474,5.803,3.679c4.001,4.664,8.725,6.66,14.486,8.938c4.111,1.706,11.732,7.532,12.659,11.018"/>
							<path fill="none" stroke="#1F376B" stroke-width="0.5" d="M977.77,354.87c0.039,0.124,0.077,0.257,0.123,0.392
								c1.456,4.403,7.21,13.527,9.555,16.918c4.395,6.561,8.306,13.485,13.885,18.887c3.983,3.792,2.094,6.352,5.315,10.857
								c2.873,4.35,8.487,11.388,9.135,16.835"/>
							<path fill="none" stroke="#1F376B" stroke-width="0.5" d="M1000.212,365.437c0.011,0.017,0.026,0.033,0.036,0.05
								c4.059,5.303,6.632,15.904,9.224,21.18c1.633,3.35,4.086,2.384,6.091,7.848c2.101,5.717,1.676,15.513,4.841,18.995
								c0.004,0.006,0.012,0.012,0.015,0.018"/>
							<path fill="none" stroke="#1F376B" stroke-width="0.5" d="M1020.415,413.502c2.984,1.834,5.631,3.615,5.619,6.84
								c-0.278,2.871-1.746,5.797-0.239,8.256c4.182,6.781,0.764,13.805-2.075,15.419c-1.448,0.821-5.313-1.929-5.571-5.483
								c-0.152-2.859-0.129-5.645,0.065-8.334c0.152-8.665-2.325-8.299-2.413-11.441l-0.004-0.001c-0.001-0.019-0.001-0.042,0-0.065
								"/>
							<path fill="none" stroke="#1F376B" stroke-width="0.5" d="M1058.728,399.708c-0.003,0.014,0,0.023,0.005,0.043
								c0.109,0.724,4.704,6.06,9.16,14.602c1.681,3.233,9.433,6.516,11.189,5.326c1.297-0.877,1.246-6.938,1.298-8.416
								c0.123-2.083-6.937-8.02-8.534-9.625c-1.597-1.604-0.658-2.036-5.664-5.02"/>
							<path fill="none" stroke="#1F376B" stroke-width="0.5" d="M977.03,293.411c1.617-4.352-4.43-11.521-8.817-12.056
								c-0.008-0.006-0.022-0.004-0.031-0.006c-0.018-0.004-0.036-0.003-0.054-0.007"/>
							<path fill="none" stroke="#1F376B" stroke-width="0.5" d="M997.992,314.497c0.293,0.419,0.542,0.852,0.743,1.292"/>
							<path fill="none" stroke="#1F376B" stroke-width="0.5" d="M982.668,309.248c1.557-2.638,8.499-0.035,10.274,0.961
								c1.957,1.039,3.846,2.557,5.042,4.282"/>
							<path fill="none" stroke="#1F376B" stroke-width="0.5" d="M997.979,314.49l0.004,0.001c0.005,0.001,0.009,0.002,0.008,0.006
								c3.277,1.542,6.182,3.865,9.391,5.202c1.901,0.726,3.639,0.094,5.468,0.628c6.375,1.379,15.627,7.36,21.146,9.949
								c0.017,0.008,0.034,0.016,0.05,0.024"/>
							<path fill="none" stroke="#1F376B" stroke-width="0.5" d="M989.597,322.479c0.518-0.147,1.15-0.127,1.868,0.014
								c3.402,0.676,8.592,4.064,10.958,4.386c2.61,0.576,4.309,1.046,6.673,2.156c5.117,2.403,9.104,3.461,14.824,3.882
								c2.472,0.194,6.981,1.236,9.387,1.565"/>
							<path fill="none" stroke="#1F376B" stroke-width="0.5" d="M963.684,335.769c-1.133,1.403-2.78,3.205-3.393,4.852
								c-0.981,2.438,0.052,5.011-0.795,7.518c-1.213,3.615-3.277,6.997-5.079,10.494c-0.618,1.319-1.279,2.505-1.724,4.042"/>
							<path fill="none" stroke="#1F376B" stroke-width="0.5" d="M967.292,314.411c-2.563-1.36-6.824,3.272-7.818,5.058
								c-1.766,3.128-2.673,5.943-2.2,9.356c0.028,0.201,0.06,0.402,0.097,0.605"/>
							<path fill="none" stroke="#1F376B" stroke-width="0.5" d="M957.236,328.831c-1.045,2.568-1.504,5.462-2.487,7.904
								c-0.672,1.777-1.737,3.366-2.277,5.204c-2.051,6.769-2.1,13.89-3.37,20.701c-0.001,0.004-0.002,0.009-0.003,0.014"/>
							<path fill="none" stroke="#1F376B" stroke-width="0.5" d="M1033.243,334.386c0.021,0.032,0.042,0.064,0.063,0.097
								c0.726,1.107,1.456,2.885,1.267,4.173c0,0.02-0.002,0.032-0.006,0.051"/>
							<path fill="none" stroke="#1F376B" stroke-width="0.5" d="M1034.547,338.622c0.007,0.012,0.014,0.022,0.026,0.033
								c1.037,1.442,2.992,2.133,3.443,3.977c0.009,0.025,0.012,0.054,0.02,0.084"/>
							<path fill="none" stroke="#1F376B" stroke-width="0.5" d="M1037.361,338.712c0.554,0.928,3.68,4.731,0.655,3.92
								c-0.023,0-0.044-0.009-0.071-0.015"/>
							<path fill="none" stroke="#1F376B" stroke-width="0.5" d="M1036.699,338.681c0.207-0.036,0.43-0.059,0.66-0.071
								c1.445-0.075,3.271,0.301,4.516,0.653c1.033,0.233,2.351,0.526,3.383,0.765c0.777,0.218,1.499,0.675,2.275,0.224
								c0.827-0.492,0.25-0.729-0.485-0.993c-0.66-0.239-1.657-0.805-2.362-1.207c-0.962-0.595-3.169-1.124-3.575-1.516
								c0,0-0.026-0.052-0.061-0.087"/>
							<path fill="none" stroke="#1F376B" stroke-width="0.5" d="M1041.021,336.405c0.013,0.003,0.022,0.005,0.036,0.008
								c1.643,0.314,3.209,0.26,4.743,0.899c0.963,0.415,2.229,0.999,3.016,0.034c-0.265-0.245-0.591-0.462-0.951-0.653
								c-0.747-0.405-1.624-0.719-2.296-1.035c-1.063-0.472-2.668-0.272-3.574-0.963"/>
							<path fill="none" stroke="#1F376B" stroke-width="0.5" d="M1042.095,332.878c1.354,0.542,2.9,1.212,4.152,2.155
								c0.636,0.472,1.199,1.021,1.619,1.656"/>
							<path fill="none" stroke="#1F376B" stroke-width="0.5" d="M1033.997,330.276c1.512,1.41,7.318,0.884,9.101,1.868
								c0.771,0.425,1.606,0.915,2.237,1.496c0.401,0.414,0.709,1.054,0.918,1.385"/>
							<path fill="none" stroke="#1F376B" stroke-width="0.5" d="M949.129,362.618c-0.011,0.008-0.017,0.016-0.028,0.022
								c-0.777,0.566-2.253,2.145-3.01,3.352"/>
							<path fill="none" stroke="#1F376B" stroke-width="0.5" d="M945.344,369.133c-0.162,0.129-0.319,0.259-0.477,0.394
								c-0.563,0.449-1.059,0.336-1.656,0.035c-0.034-0.016-0.063-0.031-0.097-0.048"/>
							<path fill="none" stroke="#1F376B" stroke-width="0.5" d="M946.946,367.795c-0.525,0.494-1.066,0.906-1.596,1.335"/>
							<path fill="none" stroke="#1F376B" stroke-width="0.5" d="M943.243,369.503c0.63-1.377,2.229-2.117,2.836-3.495
								c0.001-0.004,0.007-0.012,0.013-0.016c0.008-0.017,0.017-0.038,0.026-0.06"/>
							<path fill="none" stroke="#1F376B" stroke-width="0.5" d="M950.631,365.954c-0.851,1.968-1.967,1.93-3.504,2.042"/>
							<path fill="none" stroke="#1F376B" stroke-width="0.5" d="M945.368,369.087c-0.007,0.013-0.015,0.024-0.018,0.043
								c-0.004-0.001-0.005,0.003-0.005,0.003c-0.296,0.64-1.867,4.593-1.832,5.005c0.069,0.627,0.633,0.28,0.901-0.045
								c0.496-0.621,0.73-1.501,1.026-2.229c0.299-0.699,0.709-1.352,1.227-1.876c0.083-0.089,0.171-0.173,0.261-0.252"/>
							<path fill="none" stroke="#1F376B" stroke-width="0.5" d="M946.708,370.03c-0.671,1.462-0.879,2.881-1.03,4.498
								c-0.017,0.303-0.214,0.624,0.064,0.849c0.306,0.227,0.619-0.052,0.788-0.239c0.67-0.831,0.941-2.27,1.176-3.284
								c0.093-0.449,0.226-1.15,0.63-1.442c0.032-0.021,0.064-0.042,0.096-0.059"/>
							<path fill="none" stroke="#1F376B" stroke-width="0.5" d="M948.349,370.377c-0.003,0.013-0.009,0.021-0.012,0.034
								c-0.339,1.118-0.246,2.428-0.405,3.569c-0.032,0.268-0.256,0.917,0.181,0.962c0.238,0.017,0.52-0.468,0.635-0.62
								c0.496-0.844,0.559-1.722,0.734-2.633c0.076-0.495,0.313-0.965,0.441-1.426"/>
							<path fill="none" stroke="#1F376B" stroke-width="0.5" d="M949.915,370.215c0.006,0.016,0.007,0.034,0.009,0.049
								c0.129,0.561,0.278,1.14,0.299,1.706c0.042,0.333-0.116,0.778-0.029,1.099c0.207,0.567,0.456,0.351,0.744-0.072
								c0.738-1.114,0.52-2.204,0.568-3.415c0.024-1.23,0.62-2.263,1.05-3.394c0.291-0.771-0.042-2.72,0.138-3.514
								c0.004-0.018,0.007-0.036,0.011-0.054"/>
						</g>
					</g>
				</g>
				<g>
					<path fill="#002D56" d="M971.045,288.046c-10.233-5.976-15.846,7.674-17.681-1.776c-0.113-0.584-0.036-1.129,0.144-1.595
						c0.34-0.884,1.048-1.48,1.538-1.53c2.105-7.045,20.225-4.648,22.646,0.43c6.367,4.183,3.107,15.028-0.813,19.211
						c-1.669,0.94-2.08-0.526-1.852-2.766c0.138-1.343,4.201-2.555,2.245-6.437c-0.601-1.205-3.459,0.608-4.226,3.136
						c-1.458,0.154-2.603,1.564-1.775-8.623"/>
				</g>
			</g>
		</g>
		<text transform="matrix(1 0 0 1 1062.2749 386.9365)"><tspan x="0" y="0" fill="#002D56" font-family="'OvertheRainbow'" font-size="142.7744" letter-spacing="-7">N</tspan><tspan x="76.379" y="0" fill="#002D56" font-family="'OvertheRainbow'" font-size="109.3592" letter-spacing="-5">A</tspan><tspan x="152.502" y="0" fill="#002D56" font-family="'OvertheRainbow'" font-size="142.7744" letter-spacing="-7">E</tspan></text>
	</g>
</g>
<g id="OFFICIAL">
	<circle fill="#BCD6CD" cx="336.194" cy="71.632" r="71.388"/>
	<circle fill="#D3EBDB" cx="357.716" cy="44.175" r="24.755"/>
	<circle fill="#D3EBDB" cx="301.054" cy="62.329" r="17.604"/>
	<circle fill="#D3EBDB" cx="363.767" cy="106.337" r="12.103"/>
	<circle fill="#BCD6CD" cx="336.194" cy="71.632" r="71.388"/>
	<circle fill="#D3EBDB" cx="357.716" cy="44.175" r="24.755"/>
	<circle fill="#D3EBDB" cx="301.054" cy="62.329" r="17.604"/>
	<circle fill="#D3EBDB" cx="363.767" cy="106.337" r="12.103"/>
	<g id="XMLID_5_">
		<g>
			<path fill="#002D56" d="M377.35,107.899l-0.007,0.002c-0.779-2.559-6.579-6.667-9.667-7.824
				c-4.327-1.529-7.878-2.881-10.965-6.229c-1.51-1.581-2.06-2.204-4.395-2.573c-3.557-0.417-13.353-4.894-19.127-7.231
				l-0.055,0.042c3.146,3.818,5.335,11.597,7.392,15.437c1.299,2.433,3.089,1.656,4.72,5.646c1.708,4.181,1.655,11.442,4.091,13.94
				l0.008-0.005c2.259,1.274,4.265,2.53,4.343,4.911c-0.13,2.137-1.14,4.346,0.043,6.12c3.277,4.914,0.933,10.208-1.126,11.476
				c-1.05,0.647-3.986-1.287-4.271-3.912c-0.189-2.113-0.247-4.173-0.174-6.177c-0.118-6.423-1.943-6.08-2.092-8.404l-0.014,0.001
				c-0.624-4.022-4.97-9.078-7.214-12.222c-2.504-3.258-1.175-5.196-4.225-7.901c-4.275-3.851-7.356-8.874-10.785-13.619
				c-1.826-2.448-6.331-9.051-7.527-12.266l-0.015,0.004c-0.997-1.763-7.863-7.324-10.916-14.109l-0.111,0.049
				c-0.8,1.066-1.973,2.447-2.382,3.683c-0.662,1.831,0.172,3.709-0.388,5.585c-0.802,2.709-2.24,5.268-3.481,7.909
				c-0.423,0.994-0.88,1.889-1.169,3.039c-0.11,0.586,0.187,2.024-0.009,2.609c-0.288,0.843-0.702,1.629-0.686,2.534
				c-0.003,0.898,0.187,1.706-0.33,2.547c-0.201,0.317-0.381,0.488-0.549,0.077c-0.072-0.238,0.033-0.575-0.006-0.824
				c-0.032-0.416-0.155-0.85-0.268-1.252c-0.083,0.344-0.248,0.706-0.29,1.071c-0.104,0.672-0.128,1.328-0.473,1.966
				c-0.082,0.116-0.278,0.485-0.455,0.482c-0.324-0.021-0.174-0.519-0.157-0.717c0.086-0.846-0.022-1.811,0.204-2.651
				c-0.292,0.23-0.371,0.753-0.428,1.085c-0.146,0.754-0.31,1.833-0.783,2.462c-0.122,0.15-0.344,0.355-0.577,0.195
				c-0.213-0.152-0.076-0.396-0.071-0.624c0.069-1.201,0.184-2.254,0.643-3.355l-0.033-0.029c-0.37,0.401-0.66,0.898-0.857,1.418
				c-0.2,0.55-0.349,1.201-0.701,1.681c-0.188,0.244-0.598,0.52-0.665,0.05c-0.039-0.294,1.028-3.292,1.226-3.75
				c-0.116,0.1-0.232,0.199-0.346,0.303c-0.404,0.348-0.775,0.278-1.226,0.074l0.022-0.047c0.43-1.037,1.593-1.624,2.006-2.661
				c0,0,0.003-0.002,0.004-0.006c0.529-0.917,1.581-2.132,2.145-2.575c0.755-5.071,0.605-10.352,1.942-15.409
				c0.352-1.375,1.098-2.583,1.548-3.917c0.662-1.831,0.925-3.99,1.631-5.919l0.028-0.005c-0.441-2.515,0.155-4.624,1.379-6.984
				c0.689-1.352,3.722-4.902,5.656-3.963l0.07-0.029c-0.428-1.037-1.063-1.976-1.815-2.914l-0.013-0.023
				c-1.249,0.808-2.661,1.175-4.278,0.622c-1.525-0.534-2.811-1.885-3.576-3.383c-1.201-2.389-2.334-4.414-0.729-6.548l0.011-0.005
				c-1.305-4.296-0.957-14.401,10.116-12.217c3.265,0.268,7.947,5.418,6.864,8.694l0.001,0.055c0.806,0.022,1.6,0.434,1.765,1.167
				c0.397,1.376-0.999,3.844-2.582,3.17l-0.021,0.024c0.231,2.346,1.054,4.728,2.167,6.811c0.938,0.386,2.232,0.433,3.27,0.361
				l-0.001-0.01c1.083-2.001,6.293-0.256,7.635,0.431c1.479,0.721,2.918,1.797,3.85,3.043c2.467,1.054,4.684,2.698,7.095,3.605
				c1.427,0.49,2.697-0.027,4.066,0.319c4.76,0.855,11.784,5.04,15.936,6.813c1.172,0.997,5.434,0.454,6.776,1.135
				c0.583,0.288,1.213,0.635,1.697,1.042c0.309,0.295,0.551,0.757,0.713,1.007c0.483,0.332,0.912,0.72,1.244,1.18l0,0.003
				c0.267,0.138,0.518,0.287,0.72,0.461c-0.556,0.735-1.509,0.336-2.233,0.055c-1.153-0.429-2.312-0.347-3.537-0.54l-0.004,0.026
				c0.026,0.028,0.048,0.06,0.048,0.06c0.311,0.282,1.958,0.619,2.686,1.037c0.533,0.279,1.286,0.671,1.782,0.831
				c0.551,0.173,0.986,0.329,0.387,0.715c-0.564,0.361-1.111,0.042-1.691-0.104c-0.77-0.152-1.754-0.331-2.525-0.48
				c-0.933-0.221-2.294-0.45-3.363-0.356l0.004,0.076c0.435,0.672,2.852,3.402,0.59,2.882c-0.381-1.347-1.849-1.816-2.656-2.85
				c0.106-0.962-0.488-2.26-1.055-3.064c-1.791-0.176-5.155-0.827-6.987-0.901c-4.247-0.163-7.226-0.843-11.08-2.483
				c-1.781-0.755-3.051-1.062-4.999-1.418c-1.762-0.168-5.696-2.539-8.232-2.953l-0.009,0.05c1.049,5.493-1.465,8.985,2.972,15.566
				l0.077,0.112c2.544,0.609,7.91,1.875,11.037,3.671c2.728,1.631,14.303,12.382,18.33,14.25c2.711,1.311,6.562,2.048,9.237,3.811
				c3.333,2.35,12.412,13.375,15.655,15.446l0.005-0.009c3.786,2.079,3.103,2.417,4.328,3.566c1.225,1.146,6.611,5.354,6.576,6.902
				c0.001,1.094,0.201,5.577-0.736,6.26c-1.269,0.924-7.097-1.299-8.428-3.645C380.996,112.257,377.452,108.425,377.35,107.899z"/>
		</g>
		<g>
			<path fill="none" stroke="#002D56" stroke-width="0.5" d="M297.037,34.864c0-0.003-0.003-0.004-0.002-0.007
				c-1.305-4.296-0.957-14.401,10.116-12.217c0.057,0.01,0.113,0.019,0.172,0.033"/>
			<path fill="none" stroke="#002D56" stroke-width="0.5" d="M297.024,34.861c-1.605,2.134-0.472,4.16,0.729,6.548
				c0.765,1.498,2.051,2.849,3.576,3.383c1.617,0.553,3.03,0.187,4.278-0.622c2.049-1.334,3.655-3.868,4.998-5.487"/>
			<path fill="none" stroke="#002D56" stroke-width="0.5" d="M305.62,44.194c0.752,0.938,1.387,1.877,1.815,2.914
				c0.226,0.538,0.396,1.103,0.497,1.708"/>
			<path fill="none" stroke="#002D56" stroke-width="0.5" d="M312.208,32.442c0.261-0.748,1.042-1.079,1.807-1.054
				c0.806,0.022,1.6,0.434,1.765,1.167c0.397,1.376-0.999,3.844-2.582,3.17c-0.108-0.046-0.214-0.105-0.324-0.182"/>
			<path fill="none" stroke="#002D56" stroke-width="0.5" d="M313.177,35.749c0.231,2.346,1.054,4.728,2.167,6.811
				c0.049,0.094,0.098,0.184,0.147,0.275"/>
			<path fill="none" stroke="#002D56" stroke-width="0.5" d="M315.312,42.547c0.009,0.005,0.022,0.011,0.032,0.012
				c0.938,0.386,2.232,0.433,3.27,0.361c0.166-0.012,0.329-0.025,0.479-0.041"/>
			<path fill="none" stroke="#002D56" stroke-width="0.5" d="M304.169,54.374c-0.641,2.965-0.028,5.896,1.203,8.631
				c3.052,6.785,9.919,12.347,10.916,14.109"/>
			<path fill="none" stroke="#002D56" stroke-width="0.5" d="M325.47,52.533c1.049,5.493-1.465,8.985,2.972,15.566"/>
			<path fill="none" stroke="#002D56" stroke-width="0.5" d="M328.519,68.211c2.544,0.609,7.91,1.875,11.037,3.671
				c2.728,1.631,14.303,12.382,18.33,14.25c2.711,1.311,6.562,2.048,9.237,3.811c3.333,2.35,12.412,13.375,15.655,15.446
				c0.019,0.01,0.034,0.023,0.052,0.033"/>
			<path fill="none" stroke="#002D56" stroke-width="0.5" d="M333.188,84.044c5.774,2.337,15.57,6.814,19.127,7.231
				c2.335,0.369,2.885,0.992,4.395,2.573c3.087,3.347,6.638,4.699,10.965,6.229c3.089,1.157,8.889,5.265,9.667,7.824"/>
			<path fill="none" stroke="#002D56" stroke-width="0.5" d="M316.201,76.823c0.029,0.09,0.063,0.188,0.101,0.287
				c1.196,3.215,5.701,9.818,7.527,12.266c3.429,4.745,6.509,9.768,10.785,13.619c3.05,2.705,1.721,4.644,4.225,7.901
				c2.244,3.145,6.59,8.2,7.214,12.222"/>
			<path fill="none" stroke="#002D56" stroke-width="0.5" d="M333.102,84.046c0.012,0.012,0.02,0.024,0.031,0.04
				c3.146,3.818,5.335,11.597,7.392,15.437c1.299,2.433,3.089,1.656,4.72,5.646c1.708,4.181,1.655,11.442,4.091,13.94
				c0.003,0.004,0.009,0.008,0.012,0.012"/>
			<path fill="none" stroke="#002D56" stroke-width="0.5" d="M349.343,119.103c2.259,1.274,4.265,2.53,4.343,4.911
				c-0.13,2.137-1.14,4.346,0.043,6.12c3.277,4.914,0.933,10.208-1.126,11.476c-1.05,0.647-3.986-1.287-4.271-3.912
				c-0.189-2.113-0.247-4.173-0.174-6.177c-0.118-6.423-1.943-6.08-2.092-8.404c-0.004-0.015-0.005-0.032-0.005-0.049"/>
			<path fill="none" stroke="#002D56" stroke-width="0.5" d="M377.345,107.867c-0.001,0.01,0,0.017,0.005,0.032
				c0.102,0.526,3.646,4.358,7.173,10.565c1.331,2.346,7.159,4.569,8.428,3.645c0.937-0.684,0.737-5.167,0.736-6.26
				c0.036-1.548-5.351-5.757-6.576-6.902c-1.225-1.149-0.542-1.487-4.328-3.566"/>
			<path fill="none" stroke="#002D56" stroke-width="0.5" d="M314.014,31.333c1.083-3.276-3.599-8.426-6.864-8.694
				c-0.017-0.003-0.033-0.006-0.05-0.005"/>
			<path fill="none" stroke="#002D56" stroke-width="0.5" d="M318.612,42.91c1.083-2.001,6.293-0.256,7.635,0.431
				c1.479,0.721,2.918,1.797,3.85,3.043c0.228,0.306,0.427,0.62,0.587,0.941"/>
			<path fill="none" stroke="#002D56" stroke-width="0.5" d="M330.089,46.383c0.003,0,0.003,0,0.007,0.001
				c2.467,1.054,4.684,2.698,7.095,3.605c1.427,0.49,2.697-0.027,4.066,0.319c4.76,0.855,11.784,5.04,15.936,6.813
				c0.009,0.005,0.016,0.006,0.025,0.011"/>
			<path fill="none" stroke="#002D56" stroke-width="0.5" d="M324.096,52.52c0.376-0.124,0.848-0.125,1.383-0.037
				c2.536,0.414,6.47,2.785,8.232,2.953c1.948,0.357,3.218,0.663,4.999,1.418c3.854,1.64,6.833,2.32,11.08,2.483
				c1.832,0.074,5.196,0.725,6.987,0.901c0.003,0.001,0.003,0.001,0.007,0.001"/>
			<path fill="none" stroke="#002D56" stroke-width="0.5" d="M305.261,63.055c-0.8,1.066-1.973,2.447-2.382,3.683
				c-0.662,1.831,0.172,3.709-0.388,5.585c-0.802,2.709-2.24,5.268-3.481,7.909c-0.423,0.994-0.88,1.889-1.169,3.039"/>
			<path fill="none" stroke="#002D56" stroke-width="0.5" d="M307.365,47.137c-1.934-0.939-4.967,2.612-5.656,3.963
				c-1.224,2.36-1.82,4.469-1.379,6.984c0.026,0.148,0.055,0.296,0.087,0.445"/>
			<path fill="none" stroke="#002D56" stroke-width="0.5" d="M300.302,58.089c-0.706,1.929-0.969,4.088-1.631,5.919
				c-0.45,1.334-1.197,2.542-1.548,3.917c-1.336,5.058-1.187,10.338-1.942,15.409c-0.001,0.007-0.001,0.01-0.002,0.017"/>
			<path fill="none" stroke="#002D56" stroke-width="0.5" d="M356.732,60.176c0.014,0.02,0.03,0.043,0.044,0.062
				c0.566,0.804,1.161,2.102,1.055,3.064c0.001,0.014-0.001,0.027-0.003,0.041"/>
			<path fill="none" stroke="#002D56" stroke-width="0.5" d="M357.811,63.278c0.005,0.008,0.011,0.016,0.02,0.024
				c0.807,1.033,2.275,1.503,2.656,2.85c0.007,0.018,0.014,0.04,0.017,0.058"/>
			<path fill="none" stroke="#002D56" stroke-width="0.5" d="M359.897,63.27c0.435,0.672,2.852,3.402,0.59,2.882
				c-0.018,0-0.037-0.006-0.053-0.009"/>
			<path fill="none" stroke="#002D56" stroke-width="0.5" d="M359.406,63.261c0.152-0.032,0.317-0.055,0.486-0.067
				c1.069-0.094,2.43,0.136,3.363,0.356c0.771,0.149,1.755,0.328,2.525,0.48c0.58,0.147,1.126,0.466,1.691,0.104
				c0.599-0.386,0.165-0.542-0.387-0.715c-0.496-0.16-1.249-0.552-1.782-0.831c-0.728-0.418-2.375-0.755-2.686-1.037
				c0,0-0.022-0.031-0.048-0.06"/>
			<path fill="none" stroke="#002D56" stroke-width="0.5" d="M362.547,61.46c0.01,0.002,0.017,0.003,0.026,0.005
				c1.225,0.192,2.383,0.11,3.537,0.54c0.724,0.281,1.677,0.68,2.233-0.055c-0.202-0.175-0.454-0.324-0.72-0.461
				c-0.567-0.278-1.226-0.486-1.729-0.699c-0.799-0.321-1.984-0.127-2.672-0.621"/>
			<path fill="none" stroke="#002D56" stroke-width="0.5" d="M363.247,58.827c1.018,0.365,2.178,0.813,3.133,1.479
				c0.483,0.332,0.912,0.72,1.244,1.18"/>
			<path fill="none" stroke="#002D56" stroke-width="0.5" d="M357.181,57.112c0.003,0.004,0.009,0.008,0.012,0.009
				c1.172,0.997,5.434,0.454,6.776,1.135c0.583,0.288,1.213,0.635,1.697,1.042c0.309,0.295,0.551,0.757,0.713,1.007l0.003,0.004"/>
			<path fill="none" stroke="#002D56" stroke-width="0.5" d="M295.201,83.318c-0.008,0.006-0.012,0.012-0.02,0.017
				c-0.564,0.443-1.616,1.658-2.145,2.575"/>
			<path fill="none" stroke="#002D56" stroke-width="0.5" d="M293.722,87.213c-0.376,0.38-0.766,0.703-1.147,1.034
				c-0.116,0.1-0.232,0.199-0.346,0.303c-0.404,0.348-0.775,0.278-1.226,0.074c-0.022-0.011-0.047-0.022-0.073-0.033"/>
			<path fill="none" stroke="#002D56" stroke-width="0.5" d="M291.025,88.577c0.43-1.037,1.593-1.624,2.006-2.661
				c0,0,0.003-0.002,0.004-0.006c0.009-0.016,0.016-0.035,0.023-0.054"/>
			<path fill="none" stroke="#002D56" stroke-width="0.5" d="M296.4,85.758c-0.576,1.47-1.408,1.481-2.539,1.599"/>
			<path fill="none" stroke="#002D56" stroke-width="0.5" d="M292.586,88.218c-0.005,0.009-0.007,0.019-0.012,0.029
				c-0.198,0.458-1.264,3.457-1.226,3.75c0.066,0.469,0.476,0.194,0.665-0.05c0.352-0.48,0.501-1.131,0.701-1.681
				c0.198-0.52,0.488-1.017,0.857-1.418c0.056-0.069,0.122-0.133,0.188-0.197"/>
			<path fill="none" stroke="#002D56" stroke-width="0.5" d="M293.604,88.877c-0.458,1.101-0.574,2.154-0.643,3.355
				c-0.004,0.228-0.142,0.471,0.071,0.624c0.232,0.16,0.455-0.045,0.577-0.195c0.473-0.629,0.637-1.708,0.783-2.462
				c0.057-0.332,0.136-0.855,0.428-1.085c0.023-0.016,0.047-0.033,0.069-0.046"/>
			<path fill="none" stroke="#002D56" stroke-width="0.5" d="M294.829,89.087c-0.001,0.01-0.006,0.016-0.008,0.026
				c-0.226,0.84-0.117,1.805-0.204,2.651c-0.017,0.199-0.167,0.696,0.157,0.717c0.177,0.003,0.374-0.367,0.455-0.482
				c0.345-0.638,0.368-1.294,0.473-1.966c0.042-0.365,0.207-0.727,0.29-1.071"/>
			<path fill="none" stroke="#002D56" stroke-width="0.5" d="M295.984,88.929c0.001,0.01,0.006,0.021,0.008,0.032
				c0.112,0.402,0.236,0.836,0.268,1.252c0.039,0.249-0.066,0.586,0.006,0.824c0.168,0.412,0.348,0.241,0.549-0.077
				c0.517-0.841,0.327-1.649,0.33-2.547c-0.016-0.905,0.398-1.691,0.686-2.534c0.196-0.585-0.102-2.023,0.009-2.609
				c0.002-0.013,0.004-0.023,0.006-0.037"/>
		</g>
	</g>
	<g>
		<path fill="#002D56" d="M320.198,32.162c-1.427,0.411-3.462-1.62-4.018-2.743c0.97-0.208,1.522-0.161,2.373-0.762
			c-3.676-0.909-3.638-2.772-6.552-4.86c-1.412-1.034-14.667-5.638-15.703,2.876c-0.861,7.081,8.674,10.153,16.409,14.302
			l0.084,0.061c2.036-1.52,2.165-3.367,5.537-5.595c-0.608,0.27-2.1,0.248-2.704-0.042
			C317.588,35.126,319.616,33.372,320.198,32.162z"/>
	</g>
	<g id="XMLID_13_">
		<g>
			<path fill="#002D56" d="M358.645,61.55l0.007,0.075c0.456,0.647,2.949,3.252,0.694,2.825c-0.429-1.316-1.897-1.724-2.734-2.713
				c0.068-0.955-0.569-2.214-1.16-2.987c-1.776-0.105-5.125-0.619-6.938-0.622c-4.203,0.002-7.173-0.555-11.044-2.027
				c-1.789-0.678-3.055-0.932-4.994-1.209c-1.747-0.098-5.726-2.29-8.248-2.601l-0.007,0.05c1.248,5.387-1.102,8.935,3.536,15.267
				l0.08,0.108c2.537,0.504,7.888,1.549,11.047,3.203c2.758,1.507,14.61,11.685,18.661,13.375c2.729,1.191,6.563,1.772,9.273,3.411
				c3.384,2.194,12.779,12.738,16.063,14.661l0.005-0.01c3.82,1.909,3.158,2.269,4.413,3.357c1.255,1.085,6.739,5.036,6.763,6.568
				c0.043,1.081,0.413,5.502-0.486,6.214c-1.218,0.965-7.062-1.011-8.468-3.278c-3.724-5.998-7.374-9.644-7.494-10.164l-0.007,0.002
				c-0.868-2.499-6.756-6.334-9.854-7.359c-4.334-1.345-7.896-2.544-11.075-5.732c-1.552-1.504-2.119-2.099-4.441-2.373
				c-3.531-0.275-13.382-4.323-19.178-6.41l-0.053,0.043c3.256,3.652,5.718,11.254,7.897,14.969
				c1.377,2.354,3.116,1.518,4.881,5.397c1.848,4.065,2.075,11.243,4.578,13.617l0.007-0.005c2.281,1.172,4.312,2.336,4.48,4.686
				c-0.046,2.117-0.959,4.338,0.278,6.045c3.427,4.729,1.314,10.051-0.671,11.383c-1.013,0.68-3.988-1.118-4.372-3.701
				c-0.268-2.078-0.404-4.114-0.409-6.097c-0.364-6.342-2.154-5.932-2.391-8.224l-0.014,0.001c-0.771-3.95-5.26-8.778-7.598-11.799
				c-2.6-3.123-1.361-5.089-4.479-7.645c-4.373-3.637-7.609-8.486-11.18-13.042c-1.899-2.345-6.604-8.7-7.91-11.831l-0.014,0.005
				c-1.053-1.704-8.051-6.935-11.329-13.522l-0.108,0.053c-0.75,1.084-1.855,2.494-2.212,3.73c-0.583,1.834,0.313,3.658-0.169,5.533
				c-0.688,2.708-2.011,5.292-3.136,7.949c-0.379,0.998-0.797,1.901-1.038,3.048c-0.086,0.583,0.263,1.993,0.092,2.579
				c-0.252,0.847-0.632,1.64-0.581,2.53c0.031,0.891,0.25,1.679-0.228,2.529c-0.187,0.322-0.357,0.498-0.54,0.097
				c-0.081-0.232,0.011-0.569-0.038-0.814c-0.047-0.409-0.187-0.831-0.313-1.227c-0.069,0.344-0.217,0.707-0.245,1.07
				c-0.078,0.668-0.076,1.317-0.392,1.96c-0.076,0.118-0.256,0.49-0.431,0.494c-0.321-0.008-0.193-0.502-0.184-0.699
				c0.053-0.843-0.091-1.792,0.1-2.63c-0.28,0.239-0.338,0.758-0.381,1.089c-0.116,0.75-0.236,1.823-0.68,2.467
				c-0.113,0.15-0.326,0.364-0.562,0.212c-0.216-0.143-0.09-0.388-0.094-0.614c0.021-1.189,0.095-2.235,0.505-3.34l-0.033-0.028
				c-0.35,0.411-0.613,0.911-0.793,1.438c-0.176,0.548-0.298,1.2-0.628,1.688c-0.177,0.246-0.57,0.533-0.654,0.072
				c-0.049-0.289,0.895-3.309,1.067-3.753c-0.111,0.103-0.222,0.206-0.33,0.313c-0.386,0.359-0.755,0.304-1.208,0.12l0.02-0.048
				c0.385-1.041,1.512-1.666,1.88-2.706c0.007-0.002,0.007-0.006,0.008-0.012c0.487-0.924,1.479-2.161,2.017-2.621
				c0.551-5.04,0.2-10.252,1.326-15.3c0.294-1.373,0.985-2.595,1.379-3.931c0.583-1.834,0.761-3.978,1.384-5.912l0.028-0.006
				c-0.533-2.468-0.024-4.575,1.094-6.954c0.629-1.362,3.49-4.987,5.436-4.13l0.071-0.031c-0.465-1.008-1.126-1.915-1.908-2.813
				l-0.014-0.022c-1.203,0.846-2.584,1.263-4.204,0.778c-1.527-0.469-2.85-1.754-3.664-3.205c-1.278-2.314-2.476-4.271-0.972-6.442
				l0.011-0.005c-1.455-4.195-1.5-14.193,9.526-12.461c3.236,0.139,8.061,5.048,7.116,8.327l0.003,0.054
				c0.797-0.009,1.598,0.368,1.789,1.085c0.445,1.345-0.839,3.836-2.429,3.231l-0.02,0.024c0.318,2.309,1.223,4.631,2.403,6.647
				c0.942,0.345,2.222,0.342,3.245,0.231l-0.002-0.011c0.994-2.019,6.208-0.495,7.561,0.132c1.489,0.656,2.952,1.664,3.921,2.859
				c2.479,0.947,4.732,2.485,7.149,3.29c1.428,0.429,2.664-0.131,4.03,0.159c4.737,0.662,11.838,4.526,16.009,6.118
				c1.197,0.94,5.387,0.24,6.739,0.861c0.587,0.262,1.224,0.581,1.718,0.964c0.316,0.28,0.573,0.727,0.743,0.968
				c0.49,0.31,0.929,0.679,1.274,1.121l0,0.003c0.27,0.123,0.523,0.26,0.73,0.425c-0.521,0.748-1.479,0.391-2.206,0.141
				c-1.156-0.38-2.297-0.254-3.515-0.397l-0.004,0.026c0.027,0.027,0.05,0.057,0.05,0.057c0.318,0.267,1.958,0.536,2.694,0.921
				c0.538,0.255,1.297,0.614,1.792,0.752c0.551,0.15,0.987,0.288,0.41,0.692c-0.543,0.379-1.096,0.085-1.674-0.038
				c-0.767-0.121-1.746-0.259-2.514-0.377C361.051,61.59,359.697,61.416,358.645,61.55z"/>
		</g>
		<g>
			<path fill="none" stroke="#1F376B" stroke-width="0.5" d="M295.446,35.975c0-0.003-0.002-0.004-0.002-0.007
				c-1.455-4.195-1.5-14.193,9.526-12.461c0.056,0.007,0.112,0.015,0.171,0.026"/>
			<path fill="none" stroke="#1F376B" stroke-width="0.5" d="M295.433,35.973c-1.504,2.171-0.307,4.128,0.972,6.442
				c0.814,1.451,2.137,2.736,3.664,3.205c1.619,0.484,3.001,0.068,4.204-0.778c1.974-1.397,3.462-3.963,4.727-5.614"/>
			<path fill="none" stroke="#1F376B" stroke-width="0.5" d="M304.286,44.864c0.782,0.898,1.443,1.805,1.908,2.813
				c0.241,0.522,0.431,1.071,0.554,1.665"/>
			<path fill="none" stroke="#1F376B" stroke-width="0.5" d="M310.344,32.999c0.229-0.749,0.988-1.106,1.745-1.111
				c0.797-0.009,1.598,0.368,1.789,1.085c0.445,1.345-0.839,3.836-2.429,3.231c-0.109-0.041-0.216-0.096-0.327-0.167"/>
			<path fill="none" stroke="#1F376B" stroke-width="0.5" d="M311.429,36.228c0.318,2.309,1.223,4.631,2.403,6.647
				c0.052,0.091,0.104,0.178,0.157,0.266"/>
			<path fill="none" stroke="#1F376B" stroke-width="0.5" d="M313.799,42.864c0.009,0.005,0.022,0.01,0.032,0.011
				c0.942,0.345,2.222,0.342,3.245,0.231c0.164-0.019,0.324-0.038,0.471-0.059"/>
			<path fill="none" stroke="#1F376B" stroke-width="0.5" d="M303.245,54.979c-0.519,2.955,0.199,5.827,1.52,8.482
				c3.277,6.587,10.276,11.818,11.329,13.522"/>
			<path fill="none" stroke="#1F376B" stroke-width="0.5" d="M324.221,52.34c1.248,5.387-1.102,8.935,3.536,15.267"/>
			<path fill="none" stroke="#1F376B" stroke-width="0.5" d="M327.837,67.715c2.537,0.504,7.888,1.549,11.047,3.203
				c2.758,1.507,14.61,11.685,18.661,13.375c2.729,1.191,6.563,1.772,9.273,3.411c3.384,2.194,12.779,12.738,16.063,14.661
				c0.019,0.009,0.034,0.021,0.053,0.03"/>
			<path fill="none" stroke="#1F376B" stroke-width="0.5" d="M333.059,83.18c5.796,2.087,15.647,6.135,19.178,6.41
				c2.322,0.274,2.889,0.869,4.441,2.373c3.179,3.188,6.74,4.388,11.075,5.732c3.097,1.025,8.986,4.861,9.854,7.359"/>
			<path fill="none" stroke="#1F376B" stroke-width="0.5" d="M315.997,76.698c0.032,0.088,0.07,0.184,0.111,0.28
				c1.306,3.131,6.011,9.485,7.91,11.831c3.571,4.556,6.807,9.405,11.18,13.042c3.118,2.556,1.879,4.522,4.479,7.645
				c2.338,3.021,6.827,7.849,7.598,11.799"/>
			<path fill="none" stroke="#1F376B" stroke-width="0.5" d="M332.975,83.186c0.012,0.012,0.021,0.023,0.032,0.038
				c3.256,3.652,5.718,11.254,7.897,14.969c1.377,2.354,3.116,1.518,4.881,5.397c1.848,4.065,2.075,11.243,4.578,13.617
				c0.003,0.004,0.009,0.008,0.012,0.012"/>
			<path fill="none" stroke="#1F376B" stroke-width="0.5" d="M350.371,117.201c2.281,1.172,4.312,2.336,4.48,4.686
				c-0.046,2.117-0.959,4.338,0.278,6.045c3.427,4.729,1.314,10.051-0.671,11.383c-1.013,0.68-3.988-1.118-4.372-3.701
				c-0.268-2.078-0.404-4.114-0.409-6.097c-0.364-6.342-2.154-5.932-2.391-8.224c-0.005-0.014-0.006-0.031-0.007-0.048"/>
			<path fill="none" stroke="#1F376B" stroke-width="0.5" d="M377.608,105.021c-0.001,0.01,0.001,0.017,0.006,0.031
				c0.12,0.52,3.77,4.166,7.494,10.164c1.406,2.267,7.25,4.243,8.468,3.278c0.899-0.711,0.529-5.133,0.486-6.214
				c-0.024-1.532-5.508-5.482-6.763-6.568c-1.255-1.088-0.593-1.448-4.413-3.357"/>
			<path fill="none" stroke="#1F376B" stroke-width="0.5" d="M312.086,31.833c0.944-3.278-3.88-8.188-7.116-8.327
				c-0.017-0.002-0.033-0.004-0.05-0.003"/>
			<path fill="none" stroke="#1F376B" stroke-width="0.5" d="M317.074,43.095c0.994-2.019,6.208-0.495,7.561,0.132
				c1.489,0.656,2.952,1.664,3.921,2.859c0.237,0.293,0.446,0.596,0.616,0.907"/>
			<path fill="none" stroke="#1F376B" stroke-width="0.5" d="M328.549,46.086c0.003,0,0.003,0,0.007,0.001
				c2.479,0.947,4.732,2.485,7.149,3.29c1.428,0.429,2.664-0.131,4.03,0.159c4.737,0.662,11.838,4.526,16.009,6.118
				c0.01,0.005,0.016,0.006,0.025,0.01"/>
			<path fill="none" stroke="#1F376B" stroke-width="0.5" d="M322.862,52.38c0.368-0.137,0.833-0.156,1.366-0.09
				c2.522,0.311,6.5,2.502,8.248,2.601c1.938,0.278,3.205,0.532,4.994,1.209c3.871,1.472,6.841,2.03,11.044,2.027
				c1.813,0.003,5.162,0.516,6.938,0.622c0.003,0,0.003,0,0.007,0.001"/>
			<path fill="none" stroke="#1F376B" stroke-width="0.5" d="M304.657,63.514c-0.75,1.084-1.855,2.494-2.212,3.73
				c-0.583,1.834,0.313,3.658-0.169,5.533c-0.688,2.708-2.011,5.292-3.136,7.949c-0.379,0.998-0.797,1.901-1.038,3.048"/>
			<path fill="none" stroke="#1F376B" stroke-width="0.5" d="M306.123,47.708c-1.946-0.857-4.807,2.768-5.436,4.13
				c-1.118,2.379-1.626,4.486-1.094,6.954c0.031,0.145,0.066,0.291,0.104,0.437"/>
			<path fill="none" stroke="#1F376B" stroke-width="0.5" d="M299.565,58.798c-0.623,1.934-0.8,4.077-1.384,5.912
				c-0.394,1.335-1.084,2.558-1.379,3.931c-1.126,5.048-0.775,10.26-1.326,15.3c-0.001,0.007-0.001,0.01-0.002,0.017"/>
			<path fill="none" stroke="#1F376B" stroke-width="0.5" d="M355.406,58.69c0.014,0.019,0.032,0.041,0.046,0.06
				c0.59,0.773,1.228,2.032,1.16,2.987c0.002,0.014,0,0.027-0.002,0.04"/>
			<path fill="none" stroke="#1F376B" stroke-width="0.5" d="M356.591,61.714c0.006,0.007,0.012,0.015,0.021,0.023
				c0.837,0.99,2.306,1.397,2.734,2.713c0.008,0.018,0.015,0.039,0.02,0.056"/>
			<path fill="none" stroke="#1F376B" stroke-width="0.5" d="M358.652,61.625c0.456,0.647,2.949,3.252,0.694,2.825
				c-0.017,0.001-0.037-0.005-0.053-0.007"/>
			<path fill="none" stroke="#1F376B" stroke-width="0.5" d="M358.167,61.635c0.149-0.038,0.311-0.067,0.478-0.085
				c1.052-0.134,2.407,0.04,3.336,0.223c0.768,0.118,1.747,0.256,2.514,0.377c0.578,0.123,1.131,0.417,1.674,0.038
				c0.577-0.404,0.142-0.542-0.41-0.692c-0.496-0.139-1.255-0.497-1.792-0.752c-0.735-0.385-2.376-0.654-2.694-0.921
				c0,0-0.023-0.03-0.05-0.057"/>
			<path fill="none" stroke="#1F376B" stroke-width="0.5" d="M361.2,59.736c0.01,0.001,0.017,0.002,0.027,0.003
				c1.217,0.143,2.359,0.017,3.515,0.397c0.727,0.25,1.684,0.607,2.206-0.141c-0.207-0.165-0.461-0.302-0.73-0.425
				c-0.571-0.253-1.229-0.437-1.735-0.627c-0.802-0.287-1.965-0.05-2.664-0.511"/>
			<path fill="none" stroke="#1F376B" stroke-width="0.5" d="M361.791,57.106c1.02,0.322,2.183,0.72,3.153,1.341
				c0.49,0.31,0.929,0.679,1.274,1.121"/>
			<path fill="none" stroke="#1F376B" stroke-width="0.5" d="M355.731,55.646c0.003,0.004,0.009,0.008,0.012,0.008
				c1.197,0.94,5.387,0.24,6.739,0.861c0.587,0.262,1.224,0.581,1.718,0.964c0.316,0.28,0.573,0.727,0.743,0.968l0.003,0.004"/>
			<path fill="none" stroke="#1F376B" stroke-width="0.5" d="M295.496,83.923c-0.007,0.006-0.012,0.012-0.019,0.018
				c-0.537,0.46-1.529,1.697-2.017,2.621"/>
			<path fill="none" stroke="#1F376B" stroke-width="0.5" d="M293.09,88.895c-0.111,0.103-0.222,0.206-0.33,0.313
				c-0.386,0.359-0.755,0.304-1.208,0.12c-0.022-0.01-0.048-0.02-0.073-0.03"/>
			<path fill="none" stroke="#1F376B" stroke-width="0.5" d="M294.184,87.829c-0.353,0.387-0.726,0.721-1.093,1.063"/>
			<path fill="none" stroke="#1F376B" stroke-width="0.5" d="M291.571,89.28c0.385-1.041,1.512-1.666,1.88-2.706
				c0.007-0.002,0.007-0.006,0.008-0.012c0.005-0.013,0.01-0.029,0.016-0.045"/>
			<path fill="none" stroke="#1F376B" stroke-width="0.5" d="M296.774,86.288c-0.513,1.475-1.335,1.518-2.447,1.677"/>
			<path fill="none" stroke="#1F376B" stroke-width="0.5" d="M293.1,88.869c-0.004,0.006-0.005,0.013-0.01,0.022l0,0.003
				c-0.172,0.444-1.116,3.465-1.067,3.753c0.084,0.461,0.478,0.173,0.654-0.072c0.33-0.487,0.452-1.14,0.628-1.688
				c0.18-0.527,0.444-1.027,0.793-1.438c0.056-0.07,0.115-0.136,0.178-0.202"/>
			<path fill="none" stroke="#1F376B" stroke-width="0.5" d="M294.132,89.478c-0.41,1.105-0.484,2.15-0.505,3.34
				c0.004,0.226-0.122,0.471,0.094,0.614c0.235,0.152,0.448-0.062,0.562-0.212c0.444-0.644,0.564-1.716,0.68-2.467
				c0.043-0.331,0.101-0.85,0.381-1.089c0.022-0.017,0.044-0.034,0.066-0.048"/>
			<path fill="none" stroke="#1F376B" stroke-width="0.5" d="M295.351,89.638c-0.001,0.01-0.006,0.016-0.007,0.026
				c-0.191,0.838-0.047,1.788-0.1,2.63c-0.009,0.197-0.138,0.691,0.184,0.699c0.175-0.004,0.355-0.376,0.431-0.494
				c0.316-0.644,0.314-1.292,0.392-1.96c0.027-0.363,0.176-0.726,0.245-1.07"/>
			<path fill="none" stroke="#1F376B" stroke-width="0.5" d="M296.485,89.438c0.002,0.011,0.007,0.021,0.009,0.032
				c0.126,0.396,0.265,0.817,0.313,1.227c0.048,0.245-0.043,0.583,0.038,0.814c0.183,0.4,0.354,0.225,0.54-0.097
				c0.478-0.851,0.259-1.639,0.228-2.529c-0.051-0.89,0.329-1.684,0.581-2.53c0.171-0.586-0.178-1.995-0.092-2.579
				c0.002-0.013,0.003-0.026,0.005-0.036"/>
		</g>
	</g>
	<g>
		<path fill="#002D56" d="M307.417,28.239c-7.803-3.802-11.157,6.475-13.016-0.33c-0.115-0.418-0.088-0.821,0.018-1.172
			c0.2-0.661,0.684-1.138,1.039-1.204c1.151-5.258,14.523-4.503,16.57-0.927c4.88,2.708,3.093,10.811,0.459,14.083
			c-1.169,0.778-1.549-0.273-1.505-1.92c0.027-0.987,2.93-2.097,1.29-4.827c-0.509-0.846-2.497,0.636-2.918,2.524
			c-1.057,0.192-1.816,1.287-1.768-6.206"/>
	</g>
	<g>
		<path fill="#002D56" d="M3.626,141.917c-0.968-10.499-1.606-20.999-1.917-31.5c-0.311-10.5-0.294-20.999,0.052-31.5
			c0.137-0.345,0.431-0.984,0.88-1.917c0.449-0.933,1.001-1.795,1.658-2.59c0.656-0.793,1.399-1.347,2.228-1.658
			c0.829-0.311,1.658-0.052,2.487,0.777l9.015,9.015l25.179,41.447c0.759,0.968,1.415,1.71,1.969,2.228
			c0.552,0.518,1.122,0.933,1.709,1.243c0.586,0.311,1.156,0.295,1.709-0.052c-0.069-1.104-0.207-2.832-0.414-5.181
			c-0.208-2.348-0.433-4.99-0.674-7.927c-0.243-2.935-0.502-6.026-0.777-9.273c-0.277-3.246-0.536-6.355-0.777-9.326
			c-0.243-2.969-0.45-5.629-0.622-7.979c-0.173-2.348-0.295-4.075-0.363-5.181c-0.069-0.897-0.104-2.399-0.104-4.507
			c0-2.106,0.12-4.472,0.363-7.098c0.241-2.625,0.622-5.319,1.14-8.083c0.518-2.762,1.26-5.197,2.228-7.305
			c0.967-2.106,2.176-3.694,3.627-4.766c1.451-1.07,3.212-1.26,5.285-0.57c0.275,0,0.638,0.225,1.088,0.673
			c0.448,0.45,0.673,0.813,0.673,1.088c-0.484,0.622-1.072,1.365-1.761,2.228c-0.691,0.864-1.365,1.779-2.021,2.746
			c-0.657,0.968-1.295,1.953-1.917,2.953c-0.622,1.002-1.072,1.953-1.347,2.85c-0.07,0.898-0.104,2.28-0.104,4.145
			c0,1.865-0.018,3.99-0.052,6.373c-0.036,2.383-0.036,4.87,0,7.46c0.034,2.591,0.052,5.078,0.052,7.461c0,2.383,0,4.507,0,6.372
			c0,1.865,0.034,3.248,0.104,4.145c0,0.554,0.086,1.883,0.259,3.989c0.172,2.108,0.363,4.37,0.57,6.787
			c0.208,2.418,0.415,4.698,0.622,6.839c0.207,2.142,0.311,3.489,0.311,4.041c0,0.691,0.017,1.761,0.052,3.212
			c0.034,1.451,0.052,2.937,0.052,4.456c0,1.521-0.018,2.919-0.052,4.197c-0.035,1.279-0.052,2.09-0.052,2.435
			c-0.069,0.346-0.243,0.864-0.518,1.554c-0.277,0.691-0.657,1.313-1.14,1.865c-0.484,0.554-1.036,0.916-1.658,1.088
			c-0.622,0.173-1.313-0.12-2.073-0.881l-12.641-12.538L12.642,87.932L9.844,86.17v55.747c0,0.968-0.295,1.572-0.881,1.813
			c-0.587,0.241-1.243,0.275-1.969,0.104c-0.725-0.171-1.435-0.448-2.124-0.829C4.179,142.626,3.764,142.264,3.626,141.917z"/>
		<path fill="#002D56" d="M65.777,141.917c-2.694-2.002-4.473-4.386-5.336-7.149c-0.864-2.762-1.502-5.767-1.917-9.015
			c0.137-0.967,0.311-2.487,0.518-4.56c0.207-2.072,0.448-4.403,0.725-6.994c0.275-2.59,0.534-5.336,0.777-8.237
			c0.241-2.901,0.482-5.647,0.725-8.238c0.241-2.59,0.431-4.922,0.57-6.994c0.138-2.072,0.241-3.591,0.311-4.56
			c0.068-0.552,0.104-1.519,0.104-2.901c0-1.381,0-2.832,0-4.352c0-1.519,0-2.953,0-4.3s-0.036-2.296-0.104-2.85l1.865-1.865
			l32.329-10.776h3.627c0.345,0.968,0.396,2.004,0.155,3.108c-0.243,1.106-0.917,1.865-2.021,2.28l-26.941,10.88l-1.761,1.761
			c-0.07,0.07-0.173,0.795-0.311,2.176c-0.139,1.382-0.311,3.022-0.518,4.922c-0.207,1.9-0.415,3.852-0.622,5.854
			c-0.208,2.004-0.347,3.663-0.415,4.974c0,0.346-0.018,0.95-0.052,1.813c-0.036,0.865-0.052,1.762-0.052,2.694
			s0.016,1.831,0.052,2.694c0.034,0.865,0.052,1.469,0.052,1.813l30.567-16.165c0.482-0.275,0.845-0.207,1.088,0.207
			c0.241,0.415,0.363,0.968,0.363,1.658c0,0.691-0.122,1.383-0.363,2.072c-0.243,0.691-0.605,1.175-1.088,1.451
			c-1.175,0.761-2.608,1.624-4.3,2.59c-1.693,0.968-3.455,1.987-5.285,3.057c-1.831,1.072-3.662,2.125-5.492,3.161
			c-1.831,1.036-3.471,1.969-4.922,2.797c-1.451,0.829-2.642,1.503-3.575,2.021s-1.435,0.777-1.502,0.777h-7.253v23.314
			c0,3.178,0.708,5.217,2.125,6.114c1.415,0.898,3.212,1.088,5.388,0.57c2.176-0.518,4.542-1.537,7.098-3.057
			c2.555-1.519,4.956-3.143,7.201-4.87c2.244-1.726,4.179-3.332,5.803-4.818c1.623-1.484,2.607-2.435,2.953-2.85
			c0.275-1.726,0.656-3.143,1.14-4.248c0.414-0.967,0.966-1.658,1.658-2.072c0.689-0.415,1.554-0.104,2.59,0.932
			c0.415,2.142,0.086,4.456-0.984,6.942c-1.072,2.487-2.608,4.906-4.611,7.253c-2.004,2.349-4.37,4.507-7.098,6.476
			c-2.729,1.969-5.492,3.523-8.289,4.663c-2.798,1.14-5.51,1.761-8.134,1.865C69.99,144.042,67.71,143.368,65.777,141.917z"/>
		<path fill="#002D56" d="M105.753,86.274c-0.691-0.829-1.261-1.71-1.71-2.643c-0.45-0.933-0.657-1.847-0.622-2.746
			c0.034-0.897,0.674-1.554,1.917-1.969c0.482-0.208,1.191-0.311,2.124-0.311s1.433,0.104,1.502,0.311l17.926,43.208
			c0.552-4.559,1.295-9.186,2.228-13.885c0.933-4.697,2.158-9.308,3.679-13.833c1.519-4.523,3.401-8.875,5.647-13.056
			c2.244-4.179,4.99-7.995,8.238-11.45c0.966-1.104,2.244-2.469,3.834-4.093c1.588-1.622,3.16-3.194,4.714-4.714
			c1.554-1.519,2.901-2.832,4.041-3.938c1.14-1.104,1.744-1.658,1.813-1.658h5.388c0.552,0.829,0.431,1.728-0.363,2.694
			c-0.795,0.968-1.797,1.883-3.005,2.746c-1.209,0.865-2.401,1.624-3.575,2.28c-1.175,0.657-1.865,1.088-2.072,1.295
			c-5.527,5.527-9.879,11.226-13.056,17.097c-3.178,5.873-5.631,12.003-7.357,18.393c-1.728,6.39-2.885,13.056-3.471,19.998
			c-0.587,6.942-1.02,14.248-1.295,21.915c-0.14,0.07-0.381,0.191-0.726,0.363c-0.346,0.173-0.709,0.363-1.088,0.57
			c-0.38,0.208-0.743,0.381-1.088,0.518c-0.347,0.14-0.588,0.243-0.726,0.311c-0.207,0.138-0.536,0.207-0.984,0.207
			c-0.45,0-0.709-0.069-0.777-0.207L107.1,87.932C106.893,87.657,106.442,87.103,105.753,86.274z"/>
		<path fill="#002D56" d="M172.876,141.917c-2.694-2.002-4.473-4.386-5.336-7.149c-0.864-2.762-1.502-5.767-1.917-9.015
			c0.137-0.967,0.311-2.487,0.518-4.56c0.207-2.072,0.448-4.403,0.725-6.994c0.275-2.59,0.534-5.336,0.777-8.237
			c0.241-2.901,0.482-5.647,0.725-8.238c0.241-2.59,0.431-4.922,0.57-6.994c0.138-2.072,0.241-3.591,0.311-4.56
			c0.068-0.552,0.104-1.519,0.104-2.901c0-1.381,0-2.832,0-4.352c0-1.519,0-2.953,0-4.3s-0.036-2.296-0.104-2.85l1.865-1.865
			l32.329-10.776h3.627c0.345,0.968,0.396,2.004,0.155,3.108c-0.243,1.106-0.917,1.865-2.021,2.28l-26.941,10.88l-1.761,1.761
			c-0.07,0.07-0.173,0.795-0.311,2.176c-0.139,1.382-0.311,3.022-0.518,4.922c-0.207,1.9-0.415,3.852-0.622,5.854
			c-0.208,2.004-0.347,3.663-0.415,4.974c0,0.346-0.018,0.95-0.052,1.813c-0.036,0.865-0.052,1.762-0.052,2.694
			s0.016,1.831,0.052,2.694c0.034,0.865,0.052,1.469,0.052,1.813l30.567-16.165c0.482-0.275,0.845-0.207,1.088,0.207
			c0.241,0.415,0.363,0.968,0.363,1.658c0,0.691-0.122,1.383-0.363,2.072c-0.243,0.691-0.605,1.175-1.088,1.451
			c-1.175,0.761-2.608,1.624-4.3,2.59c-1.693,0.968-3.455,1.987-5.285,3.057c-1.831,1.072-3.662,2.125-5.492,3.161
			c-1.831,1.036-3.471,1.969-4.922,2.797c-1.451,0.829-2.642,1.503-3.575,2.021s-1.435,0.777-1.502,0.777h-7.253v23.314
			c0,3.178,0.708,5.217,2.125,6.114c1.415,0.898,3.212,1.088,5.388,0.57c2.176-0.518,4.542-1.537,7.098-3.057
			c2.555-1.519,4.956-3.143,7.201-4.87c2.244-1.726,4.179-3.332,5.803-4.818c1.623-1.484,2.607-2.435,2.953-2.85
			c0.275-1.726,0.656-3.143,1.14-4.248c0.414-0.967,0.966-1.658,1.658-2.072c0.689-0.415,1.554-0.104,2.59,0.932
			c0.415,2.142,0.086,4.456-0.984,6.942c-1.072,2.487-2.608,4.906-4.611,7.253c-2.004,2.349-4.37,4.507-7.098,6.476
			c-2.729,1.969-5.492,3.523-8.289,4.663c-2.798,1.14-5.51,1.761-8.134,1.865C177.089,144.042,174.81,143.368,172.876,141.917z"/>
		<path fill="#002D56" d="M227.67,141.917c-0.07-1.243-0.155-3.125-0.259-5.647c-0.104-2.521-0.207-5.388-0.311-8.6
			c-0.104-3.212-0.225-6.58-0.363-10.103c-0.139-3.523-0.259-6.873-0.363-10.051c-0.104-3.177-0.191-6.026-0.259-8.549
			c-0.07-2.521-0.104-4.404-0.104-5.647c0-0.415-0.018-1.122-0.052-2.124c-0.036-1-0.052-2.073-0.052-3.212s0.016-2.228,0.052-3.264
			c0.034-1.037,0.052-1.762,0.052-2.176c-0.829,0.415-1.813,1.14-2.953,2.176c-1.14,1.036-2.367,2.16-3.679,3.367
			c-1.313,1.209-2.642,2.315-3.989,3.316c-1.347,1.002-2.608,1.642-3.782,1.917c-1.59-0.967-2.315-2.158-2.176-3.575
			c0.138-1.415,0.915-2.936,2.332-4.56c1.415-1.622,3.315-3.298,5.699-5.025c2.383-1.726,5.008-3.384,7.875-4.974
			c2.866-1.588,5.819-3.039,8.859-4.352c3.039-1.311,5.922-2.399,8.652-3.264c2.728-0.863,5.145-1.415,7.253-1.658
			c2.106-0.241,3.679-0.085,4.715,0.466c1.933,2.004,2.866,4.491,2.798,7.46c-0.07,2.971-0.726,6.149-1.969,9.533
			c-1.244,3.385-2.868,6.908-4.87,10.569c-2.004,3.663-3.938,7.202-5.803,10.621s-3.455,6.631-4.767,9.636
			c-1.313,3.005-1.935,5.579-1.865,7.72c0.068,2.142,1.07,3.73,3.005,4.767c1.933,1.036,5.215,1.279,9.844,0.725
			c2.347-0.552,4.8-1.433,7.356-2.642c2.555-1.208,5.042-2.555,7.461-4.042c2.417-1.484,4.679-3.057,6.787-4.714
			c2.106-1.658,3.886-3.212,5.336-4.663c2.417,0.622,3.764,1.521,4.041,2.694c0.275,1.175-0.191,2.487-1.399,3.938
			c-1.209,1.451-3.022,2.971-5.44,4.559c-2.418,1.59-5.146,3.126-8.186,4.611c-3.041,1.486-6.201,2.815-9.481,3.989
			c-3.282,1.175-6.424,2.072-9.429,2.694c-3.005,0.622-5.699,0.898-8.083,0.829c-2.383-0.068-4.128-0.656-5.232-1.762
			c0,0.415-0.036,1.14-0.104,2.176c-0.069,1.036-0.207,2.124-0.414,3.264c-0.208,1.14-0.554,2.212-1.037,3.212
			c-0.484,1.002-1.175,1.709-2.072,2.124c-0.761,0.345-1.468,0.275-2.124-0.207C228.515,142.989,228.015,142.471,227.67,141.917z
			 M233.162,119.121l19.066-42.587c-0.484-1.588-1.295-2.71-2.435-3.368c-1.14-0.656-2.435-0.966-3.886-0.933
			c-1.451,0.036-2.937,0.363-4.456,0.984c-1.521,0.622-2.919,1.365-4.197,2.228c-1.279,0.864-2.331,1.797-3.16,2.797
			c-0.829,1.002-1.244,1.917-1.244,2.746L233.162,119.121z"/>
		<path fill="#002D56" d="M279.458,67.52c0.275-0.208,0.604-0.415,0.984-0.622c0.379-0.207,0.777-0.362,1.192-0.466
			c0.415-0.104,0.759-0.12,1.036-0.052c0.275,0.07,0.622,0.259,1.036,0.57c0.415,0.311,0.811,0.639,1.191,0.984
			c0.379,0.346,0.708,0.709,0.984,1.088c0.275,0.38,0.415,0.673,0.415,0.881v57.508c0.829-1.036,2.228-1.744,4.197-2.124
			c1.969-0.379,4.3-0.638,6.994-0.777c2.694-0.138,5.647-0.223,8.859-0.259c3.212-0.034,6.476-0.208,9.792-0.518
			c3.315-0.311,6.58-0.863,9.792-1.658c3.212-0.793,6.165-1.985,8.859-3.575c2.555-1.519,4.3-2.296,5.232-2.332
			c0.933-0.034,1.26,0.398,0.984,1.295c-0.277,0.898-1.106,2.072-2.487,3.523c-1.383,1.451-3.092,2.901-5.129,4.352
			c-2.039,1.451-4.336,2.729-6.891,3.834c-2.557,1.105-5.181,1.728-7.875,1.865c-0.691,0.07-1.728,0.104-3.109,0.104
			c-1.382,0-2.971,0.018-4.766,0.052c-1.797,0.036-3.662,0.036-5.596,0c-1.935-0.034-3.8-0.052-5.595-0.052
			c-1.797,0-3.385,0-4.767,0c-1.382,0-2.418-0.034-3.108-0.104c-0.829,0.622-1.676,1.676-2.539,3.161
			c-0.865,1.486-1.797,2.919-2.798,4.3c-1.002,1.382-2.09,2.487-3.264,3.315c-1.176,0.829-2.522,0.865-4.041,0.104V68.141
			C279.044,67.934,279.181,67.727,279.458,67.52z"/>
		<path fill="#002D56" d="M390.806,141.917c-0.968-10.499-1.606-20.999-1.917-31.5c-0.311-10.5-0.294-20.999,0.052-31.5
			c0.137-0.345,0.431-0.984,0.88-1.917c0.449-0.933,1.001-1.795,1.658-2.59c0.656-0.793,1.399-1.347,2.228-1.658
			c0.829-0.311,1.658-0.052,2.487,0.777l9.015,9.015l25.179,41.447c0.759,0.968,1.415,1.71,1.969,2.228
			c0.552,0.518,1.122,0.933,1.709,1.243c0.586,0.311,1.156,0.295,1.709-0.052c-0.069-1.104-0.207-2.832-0.414-5.181
			c-0.208-2.348-0.433-4.99-0.674-7.927c-0.243-2.935-0.502-6.026-0.777-9.273c-0.277-3.246-0.536-6.355-0.777-9.326
			c-0.243-2.969-0.45-5.629-0.622-7.979c-0.173-2.348-0.295-4.075-0.363-5.181c-0.069-0.897-0.104-2.399-0.104-4.507
			c0-2.106,0.12-4.472,0.363-7.098c0.241-2.625,0.622-5.319,1.14-8.083c0.518-2.762,1.26-5.197,2.228-7.305
			c0.967-2.106,2.176-3.694,3.627-4.766c1.451-1.07,3.212-1.26,5.285-0.57c0.275,0,0.638,0.225,1.088,0.673
			c0.448,0.45,0.673,0.813,0.673,1.088c-0.484,0.622-1.072,1.365-1.761,2.228c-0.691,0.864-1.365,1.779-2.021,2.746
			c-0.657,0.968-1.295,1.953-1.917,2.953c-0.622,1.002-1.072,1.953-1.347,2.85c-0.07,0.898-0.104,2.28-0.104,4.145
			c0,1.865-0.018,3.99-0.052,6.373c-0.036,2.383-0.036,4.87,0,7.46c0.034,2.591,0.052,5.078,0.052,7.461c0,2.383,0,4.507,0,6.372
			c0,1.865,0.034,3.248,0.104,4.145c0,0.554,0.086,1.883,0.259,3.989c0.172,2.108,0.363,4.37,0.57,6.787
			c0.208,2.418,0.415,4.698,0.622,6.839c0.207,2.142,0.311,3.489,0.311,4.041c0,0.691,0.017,1.761,0.052,3.212
			c0.034,1.451,0.052,2.937,0.052,4.456c0,1.521-0.018,2.919-0.052,4.197c-0.035,1.279-0.052,2.09-0.052,2.435
			c-0.069,0.346-0.243,0.864-0.518,1.554c-0.277,0.691-0.657,1.313-1.14,1.865c-0.484,0.554-1.036,0.916-1.658,1.088
			c-0.622,0.173-1.313-0.12-2.073-0.881l-12.641-12.538l-23.314-37.821l-2.798-1.762v55.747c0,0.968-0.295,1.572-0.881,1.813
			c-0.587,0.241-1.243,0.275-1.969,0.104c-0.725-0.171-1.435-0.448-2.124-0.829C391.358,142.626,390.944,142.264,390.806,141.917z"
			/>
		<path fill="#002D56" d="M472.437,135.389c0.138-0.068,0.293-0.949,0.466-2.642c0.171-1.692,0.362-3.679,0.57-5.958
			c0.207-2.28,0.379-4.627,0.518-7.046c0.138-2.417,0.241-4.42,0.311-6.01c0-0.897,0.016-2.176,0.052-3.833
			c0.034-1.658,0.052-3.505,0.052-5.544c0-2.037,0.016-4.161,0.052-6.373c0.034-2.21,0.034-4.3,0-6.269
			c-0.036-1.969-0.07-3.712-0.104-5.233c-0.036-1.519-0.052-2.625-0.052-3.316c0-0.275-0.088-0.759-0.259-1.451
			c-0.173-0.689-0.347-1.415-0.518-2.176c-0.173-0.759-0.363-1.467-0.57-2.124c-0.208-0.656-0.38-1.122-0.518-1.399
			c-2.419-0.208-4.87-0.068-7.357,0.415c-2.487,0.484-4.94,1.036-7.357,1.658c-2.419,0.622-4.818,1.14-7.202,1.554
			c-2.383,0.415-4.646,0.415-6.787,0c-0.552-1.174-0.017-2.365,1.606-3.575c1.622-1.208,3.989-2.28,7.098-3.212
			c3.109-0.932,6.735-1.691,10.88-2.279c4.145-0.586,8.427-0.845,12.849-0.777c4.42,0.07,8.772,0.536,13.056,1.399
			c4.282,0.865,8.116,2.246,11.501,4.145c3.384,1.9,6.114,4.37,8.186,7.409c2.072,3.041,3.108,6.805,3.108,11.294
			c0,1.59-0.277,3.282-0.829,5.078c-0.554,1.797-1.261,3.592-2.124,5.388c-0.864,1.797-1.831,3.507-2.901,5.129
			c-1.071,1.624-2.124,2.989-3.16,4.093c-0.484,0.554-1.279,1.399-2.383,2.539c-1.106,1.14-2.367,2.435-3.782,3.886
			c-1.417,1.451-2.919,2.953-4.507,4.507c-1.59,1.555-3.092,3.041-4.507,4.456c-1.417,1.417-2.694,2.678-3.834,3.782
			c-1.14,1.106-1.986,1.935-2.539,2.487c-0.207,1.658-0.484,3.178-0.829,4.559c-0.346,1.383-0.864,2.453-1.554,3.212
			c-0.691,0.759-1.572,1.122-2.642,1.088c-1.072-0.036-2.401-0.604-3.989-1.709c-1.521,1.036-3.126,2.503-4.818,4.404
			c-1.693,1.899-3.437,3.73-5.233,5.492c-1.797,1.761-3.662,3.16-5.595,4.196c-1.935,1.036-3.87,1.14-5.803,0.311v-3.626
			L472.437,135.389z M481.451,128.136c4.352-1.796,8.202-4.438,11.553-7.927c3.35-3.487,6.01-7.305,7.979-11.45
			c1.969-4.145,3.16-8.341,3.574-12.589c0.415-4.249-0.104-7.995-1.554-11.243c-1.451-3.246-3.921-5.751-7.409-7.512
			c-3.489-1.762-8.204-2.228-14.144-1.399V128.136z"/>
	</g>
	<g>
		<path fill="#002D56" d="M257.723,151.931c-0.512,1.024-0.743,4.455-0.743,8.244c0,7.886,0.333,9.448,1.485,9.448
			c0.461,0,1.255-0.256,2.023-0.717l0.103,0.205c-1.306,1.152-1.818,1.485-2.996,2.202c-2.228,0-2.305-2.561-2.407-7.323h-4.66
			c-0.666,1.28-1.152,2.432-1.818,3.354c-1.946,2.663-3.841,3.892-6.094,3.892h-1.588l1.204-1.639
			c0.512,0.128,1.126,0.23,1.818,0.23c1.613,0,2.023-0.307,3.584-2.918c1.562-2.612,5.326-10.268,7.502-13.698
			c-0.691,0-1.665-0.077-2.714-0.077c-2.816,0-5.659,0.128-5.659,6.324c-0.742,0.487-1.075,0.768-1.767,1.383
			c0-2.816,0.845-5.633,3.252-7.604c1.511-1.229,3.354-1.536,5.249-1.536C254.906,151.7,256.34,151.854,257.723,151.931z
			 M251.321,162.735h3.841c-0.025-0.947-0.025-1.818-0.025-2.637c0-2.407,0.051-4.122,0.051-4.711
			C253.779,157.871,252.474,160.636,251.321,162.735z"/>
		<path fill="#002D56" d="M263.585,164.938h0.179c1.613-4.302,3.252-7.092,5.326-7.092c0.333,0,0.64,0.077,0.896,0.256l-0.819,1.408
			c-0.205-0.128-0.538-0.23-0.922-0.23c-1.562,0-3.662,3.61-5.454,10.805l-1.408,1.203c-0.026-0.307-0.051-0.64-0.051-0.973
			c0-2.945,0.819-5.966,1.587-10.882l-1.792,1.306l0.051-0.282c0,0,1.639-2.33,3.405-2.611
			C264.251,159.996,263.944,162.582,263.585,164.938z"/>
		<path fill="#002D56" d="M271.932,157.999c0.64-0.025,1.229-0.051,1.869-0.051c0.743,0,1.229,0.026,1.895,0.103l-1.357,1.229
			c-0.512-0.025-0.896-0.051-1.69-0.051h-0.921l-0.128,0.999c-0.461,3.738-0.921,7.4-1.741,9.422l0.077,0.051
			c1.715-1.229,4.097-4.122,5.838-6.631l0.256,0.154c-2.253,3.379-5.351,7.246-7.297,8.065c-0.025-0.307-0.051-0.64-0.051-0.973
			c0-1.665,0.436-3.687,1.588-11.061c-0.538,0-1.383,0.051-2.023,0.102l0.691-1.075c0.435-0.077,0.999-0.153,1.485-0.205
			l0.179-1.204l1.613-0.922L271.932,157.999z"/>
		<path fill="#002D56" d="M281.508,158.562l-1.203,1.408c-0.205-0.717-0.871-1.075-1.792-1.075c-1.126,0-1.843,0.768-1.843,1.587
			c0,1.306,0.819,2.048,1.613,2.944c1.204,1.383,1.869,2.433,1.869,3.687c0,1.767-2.893,4.123-4.993,4.123
			c-0.871,0-1.562-0.23-1.972-0.691l1.28-1.178c0.486,0.435,1.408,0.793,2.151,0.793c0.973,0,2.279-1.024,2.279-2.048
			c0-1.075-0.794-2.176-1.972-3.457c-0.819-0.896-1.895-2.048-1.895-3.124c0-0.947,0.845-1.946,1.895-2.766
			c0.64-0.512,1.536-0.896,2.586-0.896C280.458,157.871,281.149,158.229,281.508,158.562z"/>
		<path fill="#002D56" d="M307.752,163.068l0.23,0.154c-2.407,3.379-5.684,7.246-7.707,8.065c-0.614,0-2.022-0.717-2.407-3.072
			c-1.05,1.254-2.509,2.637-3.61,3.021c-3.841,0-4.916-3.534-4.916-7.042c0-6.478,5.095-12.393,8.373-12.393
			c1.126,0,2.048,0.64,2.048,1.998c0,1.459-2.1,3.149-4.327,4.506c2.561-0.23,4.762-0.333,6.836-0.333
			c1.178,0,2.33,0.051,3.431,0.077l-1.562,1.485c-0.666-0.051-2.202-0.051-3.507-0.051c-0.333,1.767-1.127,4.429-1.127,6.606
			c0,2.022,0.615,3.328,2.074,3.61C303.348,168.471,305.883,165.578,307.752,163.068z M297.792,167.575v-0.563
			c0-3.047,0.717-5.837,1.383-7.502c-2.356,0-4.865,0.205-7.323,0.743c-0.128,0.051-0.23,0.103-0.333,0.153
			c-0.23,0.973-0.358,1.972-0.358,2.97c0,4.327,1.459,5.863,3.687,6.248C295.616,169.444,296.666,168.676,297.792,167.575z
			 M291.775,159.484c0.666-0.308,1.306-0.64,1.895-0.973l0.025-0.025h0.025c2.33-1.306,4.071-2.714,4.123-3.866
			c0-0.794-0.461-1.332-1.357-1.332C294.976,153.288,292.825,156.104,291.775,159.484z"/>
		<path fill="#002D56" d="M325.061,151.802c1.536,0,3.047,0,3.892-0.025l-1.434,1.511c-1.178,0-4.097-0.026-5.94-0.026
			c-0.103,0.256-0.205,0.563-0.256,0.871l-0.871,5.505h0.358c1.178,0,2.023,0.103,3.021,0.103c0.742,0,1.562-0.051,2.483-0.256
			l0.128,0.102c-0.512,0.743-1.587,1.69-2.842,1.69c-0.743,0-1.511-0.051-3.431-0.051c-0.256,1.639-0.538,3.38-0.871,5.044
			c-0.205,0.999-0.64,1.869-1.92,3.098l0.103,0.205l6.068,0.051c1.382,0.077,2.637-0.23,3.738-0.999l0.102,0.205
			c-1.408,1.076-1.895,1.459-2.996,2.228l-9.806-0.025l-0.103-0.205c2.048-0.435,2.637-2.688,2.944-4.327
			c1.459-7.861,1.587-11.573,2.612-13.238h-1.05c-3.431,0-4.634,1.665-4.634,6.196l-1.767,1.383c0-3.662,1.101-6.503,4.635-8.526
			c0.666-0.384,1.587-0.512,3.815-0.512H325.061z"/>
		<path fill="#002D56" d="M338.477,159.637c0,3.226-1.331,7.042-1.843,10.011l0.077,0.051c1.613-1.152,3.687-3.61,5.377-5.991
			l0.256,0.179c-2.074,3.047-4.967,6.606-6.836,7.399c-0.026-0.307-0.051-0.64-0.051-0.973c0-3.303,1.152-6.555,1.152-9.986
			l-0.102-0.051c-1.844,1.665-4.634,5.838-6.273,11.01c-0.41-0.461-0.589-0.947-0.589-1.639c0-0.896,1.434-10.088,1.434-10.088
			L331,159.509l-1.69,1.229l0.051-0.282c0,0,1.639-2.33,3.405-2.611c-0.41,2.56-0.691,5.735-1.152,8.27l0.077,0.051
			c1.767-3.431,4.276-7.323,6.35-8.296C338.323,158.101,338.477,158.92,338.477,159.637z"/>
		<path fill="#002D56" d="M344.161,157.999c0.64-0.025,1.229-0.051,1.869-0.051c0.743,0,1.229,0.026,1.895,0.103l-1.357,1.229
			c-0.512-0.025-0.896-0.051-1.69-0.051h-0.921l-0.128,0.999c-0.461,3.738-0.921,7.4-1.741,9.422l0.077,0.051
			c1.715-1.229,4.097-4.122,5.838-6.631l0.256,0.154c-2.253,3.379-5.351,7.246-7.297,8.065c-0.025-0.307-0.051-0.64-0.051-0.973
			c0-1.665,0.436-3.687,1.588-11.061c-0.538,0-1.383,0.051-2.023,0.102l0.691-1.075c0.435-0.077,0.999-0.153,1.485-0.205
			l0.179-1.204l1.613-0.922L344.161,157.999z"/>
		<path fill="#002D56" d="M353.813,158.895c0,2.355-3.969,5.121-5.659,6.247c-0.026,0.282-0.026,0.487-0.026,0.717
			c0,1.715,0.512,3.277,1.741,4.173c1.844-1.408,3.994-3.969,5.684-6.324l0.256,0.179c-2.202,3.201-5.019,6.631-6.836,7.399
			c-1.844-0.435-2.561-2.765-2.561-4.865c0-4.225,3.534-8.552,6.094-8.552C353.378,157.871,353.813,158.178,353.813,158.895z
			 M348.283,164.528c2.023-1.332,4.045-3.584,4.045-4.865c0-0.308-0.128-0.768-0.691-0.768
			C349.793,158.895,348.744,161.609,348.283,164.528z"/>
		<path fill="#002D56" d="M356.808,164.938h0.179c1.613-4.302,3.252-7.092,5.326-7.092c0.333,0,0.64,0.077,0.896,0.256l-0.819,1.408
			c-0.205-0.128-0.538-0.23-0.922-0.23c-1.562,0-3.662,3.61-5.454,10.805l-1.408,1.203c-0.026-0.307-0.051-0.64-0.051-0.973
			c0-2.945,0.819-5.966,1.587-10.882l-1.792,1.306l0.051-0.282c0,0,1.639-2.33,3.405-2.611
			C357.474,159.996,357.167,162.582,356.808,164.938z"/>
		<path fill="#002D56" d="M365.155,157.999c0.64-0.025,1.229-0.051,1.869-0.051c0.743,0,1.229,0.026,1.895,0.103l-1.357,1.229
			c-0.512-0.025-0.896-0.051-1.69-0.051h-0.922l-0.128,0.999c-0.461,3.738-0.921,7.4-1.741,9.422l0.077,0.051
			c1.715-1.229,4.097-4.122,5.838-6.631l0.256,0.154c-2.253,3.379-5.351,7.246-7.297,8.065c-0.025-0.307-0.051-0.64-0.051-0.973
			c0-1.665,0.436-3.687,1.588-11.061c-0.538,0-1.383,0.051-2.023,0.102l0.691-1.075c0.435-0.077,0.999-0.153,1.485-0.205
			l0.179-1.204l1.613-0.922L365.155,157.999z"/>
		<path fill="#002D56" d="M376.268,158.357l-0.154,0.743c-0.256,1.434-0.512,2.74-0.64,3.533c-0.333,2.202-0.743,4.583-1.536,7.016
			l0.077,0.051c1.562-1.126,3.687-3.636,5.377-5.991l0.256,0.179c-2.202,3.201-5.018,6.631-6.836,7.399
			c-0.025-0.307-0.025-0.64-0.025-0.973c0-2.561,0.538-3.917,0.999-6.657l-0.077-0.051c-1.844,3.098-3.457,5.556-6.017,7.81
			c-0.23-0.794-0.333-1.818-0.333-2.894c0-1.715,0.256-3.584,0.64-4.967c0.896-3.226,2.407-5.326,5.787-5.326
			C374.885,158.229,375.627,158.229,376.268,158.357z M368.944,167.831c0,0.64,0.051,1.178,0.154,1.485
			c0.307,0,1.126-1.357,1.408-1.741c0.999-1.254,3.917-6.196,3.917-7.886c-0.358-0.103-0.999-0.153-1.587-0.153
			c-2.816,0-3.175,0.845-3.61,4.276C369.226,163.811,368.944,166.141,368.944,167.831z"/>
		<path fill="#002D56" d="M379.672,169.623l0.051,0.077c1.587-1.126,3.687-3.636,5.377-5.991l0.282,0.179
			c-2.202,3.201-5.044,6.631-6.862,7.399c-0.026-0.307-0.051-0.64-0.051-0.973c0-2.945,0.819-5.966,1.587-10.882l-1.792,1.306
			l0.051-0.282c0,0,1.639-2.33,3.405-2.611C381.106,161.686,380.62,166.909,379.672,169.623z M382.284,152.212
			c0.025,0.205,0.025,0.436,0.025,0.64c0,1.383-0.41,2.202-1.689,2.868c0.179-0.486,0.281-1.51,0.307-2.279L382.284,152.212z"/>
		<path fill="#002D56" d="M393.114,159.637c0,3.226-1.331,7.042-1.843,10.011l0.077,0.051c1.613-1.152,3.687-3.61,5.377-5.991
			l0.256,0.179c-2.074,3.047-4.967,6.606-6.836,7.399c-0.026-0.307-0.051-0.64-0.051-0.973c0-3.303,1.152-6.555,1.152-9.986
			l-0.102-0.051c-1.844,1.665-4.634,5.838-6.273,11.01c-0.41-0.461-0.589-0.947-0.589-1.639c0-0.896,1.434-10.088,1.434-10.088
			l-0.077-0.051l-1.69,1.229l0.051-0.282c0,0,1.639-2.33,3.405-2.611c-0.41,2.56-0.691,5.735-1.152,8.27l0.077,0.051
			c1.767-3.431,4.276-7.323,6.35-8.296C392.961,158.101,393.114,158.92,393.114,159.637z"/>
		<path fill="#002D56" d="M397.902,166.115l0.077,0.051c1.613-3.431,4.097-7.323,6.017-8.296c0.256,0.205,0.461,0.973,0.461,1.665
			c0,2.15-0.922,4.557-1.204,6.58l0.077,0.051c1.613-3.431,4.097-7.323,6.017-8.296c0.282,0.23,0.436,1.05,0.436,1.792
			c0,3.175-1.255,6.452-1.844,9.985l0.077,0.051c1.613-1.152,3.688-3.61,5.377-5.991l0.256,0.179
			c-2.074,3.047-4.967,6.606-6.836,7.399c-0.025-0.307-0.051-0.64-0.051-0.973c0-3.303,1.152-6.555,1.152-9.986l-0.103-0.051
			c-1.69,1.665-4.455,5.838-5.94,11.01c-0.282-0.256-0.563-0.589-0.563-1.28c0-0.102,0-0.23,0.025-0.358
			c0.333-2.996,1.229-5.889,1.229-9.32l-0.102-0.051c-1.69,1.665-4.456,5.838-5.94,11.01c-0.41-0.461-0.589-0.947-0.589-1.639
			c0-2.048,1.204-8.654,1.434-10.088l-0.077-0.051l-1.69,1.229l0.051-0.282c0,0,1.639-2.33,3.405-2.611
			C398.645,160.405,398.363,163.581,397.902,166.115z"/>
		<path fill="#002D56" d="M419.307,158.895c0,2.355-3.969,5.121-5.659,6.247c-0.025,0.282-0.025,0.487-0.025,0.717
			c0,1.715,0.512,3.277,1.741,4.173c1.844-1.408,3.995-3.969,5.684-6.324l0.256,0.179c-2.202,3.201-5.019,6.631-6.836,7.399
			c-1.844-0.435-2.561-2.765-2.561-4.865c0-4.225,3.534-8.552,6.094-8.552C418.872,157.871,419.307,158.178,419.307,158.895z
			 M413.776,164.528c2.023-1.332,4.045-3.584,4.045-4.865c0-0.308-0.128-0.768-0.691-0.768
			C415.287,158.895,414.237,161.609,413.776,164.528z"/>
		<path fill="#002D56" d="M429.087,159.637c0,3.226-1.331,7.042-1.843,10.011l0.077,0.051c1.613-1.152,3.687-3.61,5.377-5.991
			l0.256,0.179c-2.074,3.047-4.967,6.606-6.836,7.399c-0.026-0.307-0.051-0.64-0.051-0.973c0-3.303,1.152-6.555,1.152-9.986
			l-0.102-0.051c-1.844,1.665-4.634,5.838-6.273,11.01c-0.41-0.461-0.589-0.947-0.589-1.639c0-0.896,1.434-10.088,1.434-10.088
			l-0.077-0.051l-1.69,1.229l0.051-0.282c0,0,1.639-2.33,3.405-2.611c-0.41,2.56-0.691,5.735-1.152,8.27l0.077,0.051
			c1.767-3.431,4.276-7.323,6.35-8.296C428.934,158.101,429.087,158.92,429.087,159.637z"/>
		<path fill="#002D56" d="M434.771,157.999c0.64-0.025,1.229-0.051,1.869-0.051c0.743,0,1.229,0.026,1.895,0.103l-1.357,1.229
			c-0.512-0.025-0.896-0.051-1.69-0.051h-0.921l-0.128,0.999c-0.461,3.738-0.921,7.4-1.741,9.422l0.077,0.051
			c1.715-1.229,4.097-4.122,5.838-6.631l0.256,0.154c-2.253,3.379-5.351,7.246-7.297,8.065c-0.025-0.307-0.051-0.64-0.051-0.973
			c0-1.665,0.436-3.687,1.588-11.061c-0.538,0-1.383,0.051-2.023,0.102l0.691-1.075c0.435-0.077,0.999-0.153,1.485-0.205
			l0.179-1.204l1.613-0.922L434.771,157.999z"/>
	</g>
</g>
<g id="PANTONE">
	<rect id="PANTONE_558_1_" x="1252.094" y="-65.897" fill="#BCD6CD" width="40.498" height="40.498"/>
	<text transform="matrix(1 0 0 1 1144.0928 -39.8975)" font-family="'HelveticaNeue-Light'" font-size="14">PANTONE 558</text>
	<rect id="PANTONE_351_1_" x="1252.094" y="-15.897" fill="#D3EBDB" width="40.498" height="40.498"/>
	<text transform="matrix(1 0 0 1 1144.0928 10.1025)" font-family="'HelveticaNeue-Light'" font-size="14">PANTONE 351</text>
	<rect id="PANTONE_296_1_" x="1252.094" y="34.103" fill="#002D56" width="40.498" height="40.498"/>
	<text transform="matrix(1 0 0 1 1144.0928 60.1025)" font-family="'HelveticaNeue-Light'" font-size="14">PANTONE 296</text>
</g>
</svg>
